<?xml version="1.0" encoding="UTF-8"?>
<svg version="1.1" xmlns="http://www.w3.org/2000/svg" width="500" height="500">
<path d="M0 0 C1.38931463 45.63364199 -23.51091282 94.6371051 -52.1875 128.79296875 C-54.11735064 131.06835233 -54.11735064 131.06835233 -56 134 C-56.66 134 -57.32 134 -58 134 C-58.25668457 134.58193115 -58.51336914 135.1638623 -58.77783203 135.76342773 C-60.1122487 138.20541557 -61.58326373 139.82650142 -63.5546875 141.78515625 C-64.25207031 142.48060547 -64.94945312 143.17605469 -65.66796875 143.89257812 C-66.39628906 144.60865234 -67.12460937 145.32472656 -67.875 146.0625 C-68.95587891 147.14241211 -68.95587891 147.14241211 -70.05859375 148.24414062 C-75.6700757 153.80911858 -75.6700757 153.80911858 -78.22973633 155.29003906 C-80.33558142 156.95922841 -80.33558142 156.95922841 -80.34301758 160.15112305 C-80.27751709 161.42511963 -80.2120166 162.69911621 -80.14453125 164.01171875 C-80.09877789 165.42380143 -80.0538839 166.83591216 -80.00976562 168.24804688 C-79.91706549 170.46282196 -79.81313028 172.67601626 -79.69165039 174.8894043 C-79.58181819 177.03437668 -79.51720497 179.17735617 -79.45703125 181.32421875 C-79.39491455 182.60385498 -79.33279785 183.88349121 -79.26879883 185.2019043 C-80.32091045 190.66691281 -83.12704475 193.15206768 -87 197 C-87.87791702 197.90501755 -88.75583405 198.8100351 -89.66035461 199.74247742 C-92.80439631 202.97979818 -95.98620975 206.17870548 -99.171875 209.375 C-100.03371777 210.24108383 -100.03371777 210.24108383 -100.9129715 211.12466431 C-103.9417415 214.16831222 -106.97328558 217.20916293 -110.00732422 220.24755859 C-113.14024817 223.38601249 -116.26375388 226.53367245 -119.38526535 229.68347168 C-121.79255343 232.10932894 -124.20647028 234.52850509 -126.62229156 236.94586182 C-127.77784389 238.10444407 -128.93089071 239.26553083 -130.08138275 240.42913818 C-131.68239357 242.04712131 -133.29250631 243.6554659 -134.90527344 245.26171875 C-135.81903748 246.17912842 -136.73280151 247.09653809 -137.67425537 248.04174805 C-140 250 -140 250 -143 250 C-144.16230653 244.29501211 -144.29756464 238.61189821 -144.5 232.8125 C-144.74327352 225.97831599 -145.13244474 219.20208442 -145.79052734 212.39477539 C-146.02687967 209.69270079 -146.1018014 207.02429641 -146.0625 204.3125 C-146.05347656 203.48363281 -146.04445313 202.65476562 -146.03515625 201.80078125 C-146.02355469 201.20652344 -146.01195312 200.61226562 -146 200 C-146.66 200 -147.32 200 -148 200 C-148 199.34 -148 198.68 -148 198 C-148.66 198 -149.32 198 -150 198 C-150 197.34 -150 196.68 -150 196 C-150.86625 195.62875 -150.86625 195.62875 -151.75 195.25 C-154.32939979 193.81700012 -156.06121592 192.21575324 -158 190 C-158 189.34 -158 188.68 -158 188 C-158.53625 187.773125 -159.0725 187.54625 -159.625 187.3125 C-162.77882134 185.56959873 -165.25085189 183.33112696 -168 181 C-169.23363281 181.87011719 -169.23363281 181.87011719 -170.4921875 182.7578125 C-189.36904642 196 -189.36904642 196 -194 196 C-193.47424286 190.96636218 -191.05901361 187.46016431 -188.375 183.3125 C-187.70210937 182.25772461 -187.70210937 182.25772461 -187.015625 181.18164062 C-178.61974589 168.09606332 -178.61974589 168.09606332 -176 165 C-175.34 165 -174.68 165 -174 165 C-173.773125 164.29875 -173.54625 163.5975 -173.3125 162.875 C-171.66158712 159.25871465 -169.7091165 156.91230024 -167 154 C-166.34 154 -165.68 154 -165 154 C-164.690625 153.38125 -164.38125 152.7625 -164.0625 152.125 C-163.375 150.75 -162.6875 149.375 -162 148 C-161.34 148 -160.68 148 -160 148 C-159.7525 147.42765625 -159.505 146.8553125 -159.25 146.265625 C-157.80683801 143.64989389 -156.11783778 141.85226544 -154 139.75 C-153.29875 139.04359375 -152.5975 138.3371875 -151.875 137.609375 C-150 136 -150 136 -148 136 C-148 135.34 -148 134.68 -148 134 C-147.34 134 -146.68 134 -146 134 C-146 133.34 -146 132.68 -146 132 C-144.120234 130.34156129 -142.24677657 128.81920461 -140.25 127.3125 C-139.66524902 126.86841797 -139.08049805 126.42433594 -138.47802734 125.96679688 C-131.02123412 120.40280473 -123.24349731 114.89071536 -114 113 C-114 112.34 -114 111.68 -114 111 C-113.34 111 -112.68 111 -112 111 C-112 110.34 -112 109.68 -112 109 C-111.34 109 -110.68 109 -110 109 C-110 108.34 -110 107.68 -110 107 C-107.625 104.375 -107.625 104.375 -105 102 C-104.34 102 -103.68 102 -103 102 C-103 101.34 -103 100.68 -103 100 C-102.34 100 -101.68 100 -101 100 C-101 99.34 -101 98.68 -101 98 C-100.34 98 -99.68 98 -99 98 C-98.5978125 97.1028125 -98.5978125 97.1028125 -98.1875 96.1875 C-97.00082594 94.00152146 -95.90400887 92.58667406 -94 91 C-93.34 91 -92.68 91 -92 91 C-92 90.34 -92 89.68 -92 89 C-91.34 89 -90.68 89 -90 89 C-90 88.34 -90 87.68 -90 87 C-89.34 87 -88.68 87 -88 87 C-88 86.34 -88 85.68 -88 85 C-87.34 85 -86.68 85 -86 85 C-86 84.34 -86 83.68 -86 83 C-85.34 83 -84.68 83 -84 83 C-84 82.34 -84 81.68 -84 81 C-83.34 81 -82.68 81 -82 81 C-82 80.34 -82 79.68 -82 79 C-81.34 79 -80.68 79 -80 79 C-79.731875 78.360625 -79.46375 77.72125 -79.1875 77.0625 C-78 75 -78 75 -75 74 C-75 73.34 -75 72.68 -75 72 C-74.34 72 -73.68 72 -73 72 C-73 71.34 -73 70.68 -73 70 C-72.34 70 -71.68 70 -71 70 C-71 69.34 -71 68.68 -71 68 C-69.28515625 66.34375 -69.28515625 66.34375 -67.0625 64.5 C-64.07954821 62.11073001 -64.07954821 62.11073001 -62 59 C-61.34 59 -60.68 59 -60 59 C-60 58.34 -60 57.68 -60 57 C-59.34 57 -58.68 57 -58 57 C-58 56.34 -58 55.68 -58 55 C-57.34 55 -56.68 55 -56 55 C-55.67 54.01 -55.34 53.02 -55 52 C-54.34 52 -53.68 52 -53 52 C-53 51.34 -53 50.68 -53 50 C-52.34 50 -51.68 50 -51 50 C-51 49.34 -51 48.68 -51 48 C-50.34 48 -49.68 48 -49 48 C-49 47.34 -49 46.68 -49 46 C-48.34 46 -47.68 46 -47 46 C-47 45.34 -47 44.68 -47 44 C-46.34 44 -45.68 44 -45 44 C-45 43.34 -45 42.68 -45 42 C-44.34 42 -43.68 42 -43 42 C-43 41.34 -43 40.68 -43 40 C-42.34 40 -41.68 40 -41 40 C-41 39.34 -41 38.68 -41 38 C-40.34 38 -39.68 38 -39 38 C-39 37.34 -39 36.68 -39 36 C-38.34 36 -37.68 36 -37 36 C-37 35.34 -37 34.68 -37 34 C-36.34 34 -35.68 34 -35 34 C-34.67 33.01 -34.34 32.02 -34 31 C-33.34 31 -32.68 31 -32 31 C-32 30.34 -32 29.68 -32 29 C-31.34 29 -30.68 29 -30 29 C-30 28.34 -30 27.68 -30 27 C-29.34 27 -28.68 27 -28 27 C-28 26.34 -28 25.68 -28 25 C-27.34 25 -26.68 25 -26 25 C-26 24.34 -26 23.68 -26 23 C-24.5 21.375 -24.5 21.375 -23 20 C-53.3855141 26.21046437 -81.68097956 36.60807798 -106.37109375 55.84765625 C-108 57 -108 57 -110 57 C-110 57.66 -110 58.32 -110 59 C-111.65 59.66 -113.3 60.32 -115 61 C-115 61.66 -115 62.32 -115 63 C-116.22265625 64.19921875 -116.22265625 64.19921875 -118.0625 65.6875 C-129.70002934 75.63304812 -139.95085227 86.67329084 -149 99 C-149.41556152 99.56009766 -149.83112305 100.12019531 -150.25927734 100.69726562 C-167.28816179 121.88214154 -167.28816179 121.88214154 -178 146 C-177.0409375 146.3403125 -177.0409375 146.3403125 -176.0625 146.6875 C-174 148 -174 148 -173.09375 150.21875 C-172.9563609 154.29462663 -174.79309619 155.80584909 -177.4375 158.8125 C-178.28183594 159.78832031 -179.12617188 160.76414062 -179.99609375 161.76953125 C-180.98802734 162.87361328 -180.98802734 162.87361328 -182 164 C-185.00749495 162.69128655 -186.63554367 161.49185519 -188.52587891 158.82568359 C-193.41158856 152.60038833 -197.89106304 148.00712955 -205.92089844 146.57128906 C-212.72538898 145.79611662 -219.53338793 145.69693726 -226.375 145.625 C-228.76842894 145.55042825 -231.16167574 145.46974792 -233.5546875 145.3828125 C-239.36956531 145.18471766 -245.18216298 145.06217183 -251 145 C-250.505 143.02 -250.505 143.02 -250 141 C-249.34 141 -248.68 141 -248 141 C-247.75378906 140.41476562 -247.50757813 139.82953125 -247.25390625 139.2265625 C-245.80626232 136.65597983 -244.20757518 135.24544307 -241.9375 133.375 C-239.02124288 131.04514448 -239.02124288 131.04514448 -237 128 C-236.34 128 -235.68 128 -235 128 C-234.731875 127.401875 -234.46375 126.80375 -234.1875 126.1875 C-233.00082594 124.00152146 -231.90400887 122.58667406 -230 121 C-229.34 121 -228.68 121 -228 121 C-228 120.34 -228 119.68 -228 119 C-227.34 119 -226.68 119 -226 119 C-226 118.34 -226 117.68 -226 117 C-225.34 117 -224.68 117 -224 117 C-223.7628125 116.43796875 -223.525625 115.8759375 -223.28125 115.296875 C-221.71052303 112.48105958 -219.78528536 110.52044584 -217.5 108.25 C-216.7059375 107.45078125 -215.911875 106.6515625 -215.09375 105.828125 C-213 104 -213 104 -211 104 C-211 103.34 -211 102.68 -211 102 C-210.34 102 -209.68 102 -209 102 C-209 101.34 -209 100.68 -209 100 C-208.34 100 -207.68 100 -207 100 C-206.773125 99.443125 -206.54625 98.88625 -206.3125 98.3125 C-204.62449964 95.33840412 -202.53323483 93.27991135 -200 91 C-199.34 91 -198.68 91 -198 91 C-198 90.34 -198 89.68 -198 89 C-196.37660195 87.29115995 -194.70680947 85.62553283 -193 84 C-192.34 83.34 -191.68 82.68 -191 82 C-185.76905946 80.8963736 -180.30909241 80.95715894 -174.984375 80.96484375 C-173.44910156 80.95614258 -173.44910156 80.95614258 -171.8828125 80.94726562 C-169.77855292 80.94070621 -167.67403905 80.96195366 -165.5703125 81.00976562 C-159.77533101 81.0384483 -159.77533101 81.0384483 -155.00195312 78.15673828 C-153.36807818 75.98892132 -153.36807818 75.98892132 -152.09472656 73.71704102 C-151.7334668 73.15041748 -151.37220703 72.58379395 -151 72 C-150.34 72 -149.68 72 -149 72 C-148.73823975 71.41371826 -148.47647949 70.82743652 -148.20678711 70.22338867 C-146.93252809 67.87568952 -145.57261122 66.31418111 -143.69140625 64.42578125 C-143.03293701 63.76296143 -142.37446777 63.1001416 -141.69604492 62.41723633 C-140.9919751 61.72267334 -140.28790527 61.02811035 -139.5625 60.3125 C-138.83458252 59.59280029 -138.10666504 58.87310059 -137.35668945 58.1315918 C-103.66816982 25.13583775 -59.61086539 5.70278157 -13.125 -0.1875 C-12.39869385 -0.28369629 -11.6723877 -0.37989258 -10.92407227 -0.47900391 C-7.04764434 -0.94235783 -3.77748379 -1.04436317 0 0 Z " fill="#0833F5" transform="translate(377,122)"/>
<path d="M0 0 C-0.33 1.32 -0.66 2.64 -1 4 C-1.67804688 4.13535156 -2.35609375 4.27070313 -3.0546875 4.41015625 C-12.68458083 6.63756925 -20.02685882 10.61239543 -25.625 18.9375 C-26.43631821 20.2799851 -27.23584834 21.63011836 -28 23 C-25.36 23.33 -22.72 23.66 -20 24 C-20.495 25.485 -20.495 25.485 -21 27 C-21.66 27 -22.32 27 -23 27 C-23.27328125 27.59425781 -23.5465625 28.18851562 -23.828125 28.80078125 C-24.95943985 30.92388212 -26.16552589 32.39431828 -27.75 34.1875 C-32.64275987 40.4902424 -34.59653152 48.49981467 -37 56 C-25.37406081 53.13154398 -13.00591424 49.50887136 -6 39 C-5.34 39 -4.68 39 -4 39 C-3.505 43.455 -3.505 43.455 -3 48 C-1.59754994 46.967259 -0.20338299 45.92326744 1.1875 44.875 C1.96480469 44.29492188 2.74210937 43.71484375 3.54296875 43.1171875 C9.85415614 37.67893064 12.01719295 32.94827362 14.11523438 25.12695312 C14.69140625 23.16796875 14.69140625 23.16796875 16 20 C18.15234375 19.05078125 18.15234375 19.05078125 20 19 C21.7291211 36.10427897 19.92721678 49.28480218 9.3203125 63.296875 C2.22534264 71.56239544 -7.00651103 77.73665971 -17 82 C-18.32 82 -19.64 82 -21 82 C-20.855625 81.154375 -20.71125 80.30875 -20.5625 79.4375 C-19.9941203 75.96406851 -19.48797607 72.48554338 -19 69 C-19.76570313 69.74443359 -19.76570313 69.74443359 -20.546875 70.50390625 C-31.99959466 81.20529501 -44.80016535 87.02522054 -59.9375 90.3125 C-60.77933838 90.49643311 -61.62117676 90.68036621 -62.48852539 90.86987305 C-63.68336548 91.11411011 -63.68336548 91.11411011 -64.90234375 91.36328125 C-65.61898193 91.51063721 -66.33562012 91.65799316 -67.07397461 91.80981445 C-69 92 -69 92 -72 91 C-70.33858636 71.39531905 -63.74804405 53.38748796 -50 39 C-49.34 39 -48.68 39 -48 39 C-48 38.34 -48 37.68 -48 37 C-49.24716797 37.433125 -49.24716797 37.433125 -50.51953125 37.875 C-51.60621094 38.24625 -52.69289062 38.6175 -53.8125 39 C-54.89144531 39.37125 -55.97039062 39.7425 -57.08203125 40.125 C-60 41 -60 41 -63 41 C-58.36190315 25.04947182 -48.41735319 12.75900442 -34.203125 4.1328125 C-23.85413065 -1.18847892 -11.29718707 -2.25943741 0 0 Z " fill="#0933F3" transform="translate(189,293)"/>
<path d="M0 0 C0 2 0 2 -2.5 4.625 C-3.7375 5.800625 -3.7375 5.800625 -5 7 C-2.69 7.33 -0.38 7.66 2 8 C2 9.65 2 11.3 2 13 C4.31 13 6.62 13 9 13 C9.33 12.01 9.66 11.02 10 10 C11.051875 9.87625 12.10375 9.7525 13.1875 9.625 C16.90036445 9.15746422 16.90036445 9.15746422 19.8125 7.875 C20.534375 7.58625 21.25625 7.2975 22 7 C22.99 7.495 22.99 7.495 24 8 C24 7.34 24 6.68 24 6 C28.76307437 5.04738513 33.1666528 4.91666643 38 5 C33.43142017 9.5394806 28.50214262 10.37230835 22.4375 11.75 C0.65073386 17.09859946 -20.62176642 26.11229793 -38.55029297 39.77685547 C-41.58654577 42.08645132 -44.38040483 43.77120754 -48 45 C-48 45.66 -48 46.32 -48 47 C-49.65 47.66 -51.3 48.32 -53 49 C-53 49.66 -53 50.32 -53 51 C-54.22265625 52.19921875 -54.22265625 52.19921875 -56.0625 53.6875 C-65.89613501 62.06364982 -75.59963193 71.3745688 -83 82 C-83.5534764 79.92446352 -84 78.15634036 -84 76 C-83.34 76 -82.68 76 -82 76 C-82.33 75.01 -82.66 74.02 -83 73 C-82.67 72.34 -82.34 71.68 -82 71 C-82.6590841 69.33032028 -83.32650839 67.66392045 -84 66 C-84 64.68 -84 63.36 -84 62 C-86.71012581 64.09066848 -88.88862067 65.84221262 -90.875 68.65625 C-95.84901658 72.38676244 -100.81776257 71.27931709 -106.8125 70.8125 C-108.56723633 70.70711914 -108.56723633 70.70711914 -110.35742188 70.59960938 C-113.24062143 70.42308695 -116.12004111 70.22246294 -119 70 C-119 69.67 -119 69.34 -119 69 C-118.30438965 69.01160156 -117.6087793 69.02320313 -116.89208984 69.03515625 C-113.7185649 69.06476101 -110.54846689 69.03294256 -107.375 69 C-106.28058594 69.01933594 -105.18617188 69.03867188 -104.05859375 69.05859375 C-97.99737155 69.08243564 -97.99737155 69.08243564 -92.95800781 66.15234375 C-91.32804881 63.98680142 -91.32804881 63.98680142 -90.07275391 61.71484375 C-89.71874512 61.14894531 -89.36473633 60.58304688 -89 60 C-88.34 60 -87.68 60 -87 60 C-86.73823975 59.41371826 -86.47647949 58.82743652 -86.20678711 58.22338867 C-84.93252809 55.87568952 -83.57261122 54.31418111 -81.69140625 52.42578125 C-81.03293701 51.76296143 -80.37446777 51.1001416 -79.69604492 50.41723633 C-78.9919751 49.72267334 -78.28790527 49.02811035 -77.5625 48.3125 C-76.83458252 47.59280029 -76.10666504 46.87310059 -75.35668945 46.1315918 C-59.31475566 30.41954188 -24.42786815 0 0 0 Z " fill="#0B34ED" transform="translate(315,134)"/>
<path d="M0 0 C-0.33 1.32 -0.66 2.64 -1 4 C-1.67804688 4.13535156 -2.35609375 4.27070313 -3.0546875 4.41015625 C-12.68458083 6.63756925 -20.02685882 10.61239543 -25.625 18.9375 C-26.43631821 20.2799851 -27.23584834 21.63011836 -28 23 C-25.36 23.33 -22.72 23.66 -20 24 C-20.495 25.485 -20.495 25.485 -21 27 C-21.66 27 -22.32 27 -23 27 C-23.27328125 27.59425781 -23.5465625 28.18851562 -23.828125 28.80078125 C-24.95943985 30.92388212 -26.16552589 32.39431828 -27.75 34.1875 C-32.64275987 40.4902424 -34.59653152 48.49981467 -37 56 C-28.45141131 53.8908155 -20.84376148 50.94820209 -13 47 C-13 47.66 -13 48.32 -13 49 C-12.34 49 -11.68 49 -11 49 C-11 49.66 -11 50.32 -11 51 C-13.64 51.66 -16.28 52.32 -19 53 C-19 53.66 -19 54.32 -19 55 C-22.87590888 57.99040161 -25.80450237 58.36081604 -30.625 58.25 C-31.75164062 58.23453125 -32.87828125 58.2190625 -34.0390625 58.203125 C-37 58 -37 58 -40 57 C-39.67 53.04 -39.34 49.08 -39 45 C-39.99 45 -40.98 45 -42 45 C-41.67 45.66 -41.34 46.32 -41 47 C-40.95977609 49.3329866 -40.95679753 51.66706666 -41 54 C-42.32 54 -43.64 54 -45 54 C-45 52.02 -45 50.04 -45 48 C-48.86763446 46.12456646 -48.86763446 46.12456646 -53 47 C-53.66 46.34 -54.32 45.68 -55 45 C-53.38405168 42.95880212 -51.7143618 40.95927063 -50 39 C-49.34 39 -48.68 39 -48 39 C-48 38.34 -48 37.68 -48 37 C-48.83144531 37.28875 -49.66289062 37.5775 -50.51953125 37.875 C-51.60621094 38.24625 -52.69289062 38.6175 -53.8125 39 C-54.89144531 39.37125 -55.97039062 39.7425 -57.08203125 40.125 C-60 41 -60 41 -63 41 C-58.36190315 25.04947182 -48.41735319 12.75900442 -34.203125 4.1328125 C-23.85413065 -1.18847892 -11.29718707 -2.25943741 0 0 Z " fill="#0A34F2" transform="translate(189,293)"/>
<path d="M0 0 C0.66 1.32 1.32 2.64 2 4 C1.01 4.33 0.02 4.66 -1 5 C-2.4587688 6.29078411 -2.4587688 6.29078411 -4 8 C-6.63891357 10.78155755 -9.0301346 13.01970339 -12.25 15.125 C-15.26003892 16.77064122 -15.26003892 16.77064122 -16 20 C-16.639375 20.12375 -17.27875 20.2475 -17.9375 20.375 C-18.618125 20.58125 -19.29875 20.7875 -20 21 C-21.29660434 23.49034386 -21.29660434 23.49034386 -22 26 C-22.66 26 -23.32 26 -24 26 C-23.979375 27.03125 -23.95875 28.0625 -23.9375 29.125 C-24.30613758 31.96466136 -24.79741223 32.8247141 -27 34.73046875 C-28.60070514 35.76938795 -30.22456844 36.77362357 -31.87109375 37.73828125 C-34.49557237 39.29370619 -35.78445062 40.29456567 -36.6875 43.25 C-37.04199295 46.36953795 -36.64063533 48.93918675 -36 52 C-31.545 51.505 -31.545 51.505 -27 51 C-26.67 52.32 -26.34 53.64 -26 55 C-25.34 55 -24.68 55 -24 55 C-24 55.66 -24 56.32 -24 57 C-23.34 57 -22.68 57 -22 57 C-21.67 57.66 -21.34 58.32 -21 59 C-20.01 59.33 -19.02 59.66 -18 60 C-17.505 62.97 -17.505 62.97 -17 66 C-17.99 66 -18.98 66 -20 66 C-20.33 65.01 -20.66 64.02 -21 63 C-22.32338632 62.31379969 -23.65949948 61.65213539 -25 61 C-27.05341087 59.39337953 -29.01362494 57.69018507 -31 56 C-31.82242188 56.58007812 -32.64484375 57.16015625 -33.4921875 57.7578125 C-52.36904642 71 -52.36904642 71 -57 71 C-56.47424286 65.96636218 -54.05901361 62.46016431 -51.375 58.3125 C-50.92640625 57.60931641 -50.4778125 56.90613281 -50.015625 56.18164062 C-41.61974589 43.09606332 -41.61974589 43.09606332 -39 40 C-38.34 40 -37.68 40 -37 40 C-36.773125 39.29875 -36.54625 38.5975 -36.3125 37.875 C-34.66158712 34.25871465 -32.7091165 31.91230024 -30 29 C-29.34 29 -28.68 29 -28 29 C-27.5359375 28.071875 -27.5359375 28.071875 -27.0625 27.125 C-26.375 25.75 -25.6875 24.375 -25 23 C-24.34 23 -23.68 23 -23 23 C-22.7525 22.42765625 -22.505 21.8553125 -22.25 21.265625 C-20.80683801 18.64989389 -19.11783778 16.85226544 -17 14.75 C-15.948125 13.69039063 -15.948125 13.69039063 -14.875 12.609375 C-13 11 -13 11 -11 11 C-11 10.34 -11 9.68 -11 9 C-10.34 9 -9.68 9 -9 9 C-9 8.34 -9 7.68 -9 7 C-7.03125 5.2734375 -7.03125 5.2734375 -4.5 3.375 C-3.6646875 2.74335938 -2.829375 2.11171875 -1.96875 1.4609375 C-1.3190625 0.97882813 -0.669375 0.49671875 0 0 Z " fill="#0B35F2" transform="translate(240,247)"/>
<path d="M0 0 C-0.33 1.32 -0.66 2.64 -1 4 C-1.67804688 4.13535156 -2.35609375 4.27070313 -3.0546875 4.41015625 C-12.68458083 6.63756925 -20.02685882 10.61239543 -25.625 18.9375 C-26.43631821 20.2799851 -27.23584834 21.63011836 -28 23 C-25.36 23.33 -22.72 23.66 -20 24 C-20.33 24.99 -20.66 25.98 -21 27 C-21.66 27 -22.32 27 -23 27 C-23.268125 27.57621094 -23.53625 28.15242188 -23.8125 28.74609375 C-25.02862441 31.05432988 -26.40878304 32.997896 -28 35.0625 C-29.75121278 37.34345464 -31.40257851 39.60386777 -33 42 C-33.33 40.68 -33.66 39.36 -34 38 C-33.34 38 -32.68 38 -32 38 C-31.87625 37.2575 -31.7525 36.515 -31.625 35.75 C-31.04513299 33.19858515 -30.26291261 31.2732427 -29 29 C-30.32 29 -31.64 29 -33 29 C-33 28.34 -33 27.68 -33 27 C-33.99 26.67 -34.98 26.34 -36 26 C-35.34 25.67 -34.68 25.34 -34 25 C-34 24.01 -34 23.02 -34 22 C-33.21625 21.608125 -32.4325 21.21625 -31.625 20.8125 C-28.65661853 18.76290327 -28.49617533 18.16525611 -27.6875 14.8125 C-27.460625 13.554375 -27.23375 12.29625 -27 11 C-27.66 11 -28.32 11 -29 11 C-29 9.68 -29 8.36 -29 7 C-30.22976562 7.66708984 -30.22976562 7.66708984 -31.484375 8.34765625 C-33.10085937 9.19650391 -33.10085937 9.19650391 -34.75 10.0625 C-35.81734375 10.63097656 -36.8846875 11.19945312 -37.984375 11.78515625 C-41.02593537 13.01044806 -42.04893565 13.25348607 -45 12 C-32.06765094 1.08833048 -16.81756117 -3.36351223 0 0 Z M-31 11 C-30.34 11 -29.68 11 -29 11 C-29 11.66 -29 12.32 -29 13 C-29.66 13 -30.32 13 -31 13 C-31 12.34 -31 11.68 -31 11 Z " fill="#0F35E5" transform="translate(189,293)"/>
<path d="M0 0 C2.0625 0.4375 2.0625 0.4375 4 1 C4 1.66 4 2.32 4 3 C4.99 3.33 5.98 3.66 7 4 C7 4.66 7 5.32 7 6 C7.66 6.33 8.32 6.66 9 7 C7 10 7 10 4 11 C3.01 12.485 3.01 12.485 2 14 C-1.05141522 15.01713841 -3.80079639 15.66674962 -7 16 C-7.99 15.34 -8.98 14.68 -10 14 C-9.67 15.65 -9.34 17.3 -9 19 C-9.66 19.33 -10.32 19.66 -11 20 C-11.33 20.99 -11.66 21.98 -12 23 C-12.99 23.33 -13.98 23.66 -15 24 C-15.350625 23.21625 -15.70125 22.4325 -16.0625 21.625 C-18.61665844 18.16452728 -20.88222494 17.85463256 -25 17 C-21.14060417 10.24605729 -17.61829676 5.37142315 -9.921875 3.0859375 C-8.35179687 2.73402344 -8.35179687 2.73402344 -6.75 2.375 C-3.06879594 1.79879721 -3.06879594 1.79879721 0 0 Z " fill="#0A35F1" transform="translate(289,148)"/>
<path d="M0 0 C0.99 0 1.98 0 3 0 C4.7810433 17.61788774 2.57214002 30.12179239 -8 44.6171875 C-9.85538696 46.82770711 -11.617523 48.39395524 -14 50 C-14 47 -14 47 -13 44 C-12.34 43.7525 -11.68 43.505 -11 43.25 C-10.34 42.8375 -9.68 42.425 -9 42 C-8.08954066 37.97880457 -7.88582414 34.11033088 -8 30 C-8 27.37886292 -7.68707555 25.49064888 -7 23 C-6.21625 22.938125 -5.4325 22.87625 -4.625 22.8125 C-3.75875 22.544375 -2.8925 22.27625 -2 22 C-0.62533375 19.52363988 -0.62533375 19.52363988 0 17 C-0.99 17 -1.98 17 -3 17 C-3.33 18.65 -3.66 20.3 -4 22 C-6.64 22.66 -9.28 23.32 -12 24 C-11.113125 22.989375 -10.22625 21.97875 -9.3125 20.9375 C-5.41612407 15.82235246 -3.81820194 10.16657522 -1.98046875 4.09765625 C-1 1 -1 1 0 0 Z " fill="#1339E3" transform="translate(206,312)"/>
<path d="M0 0 C0.66 0 1.32 0 2 0 C1.690625 0.598125 1.38125 1.19625 1.0625 1.8125 C-0.10209704 4.08956772 -0.10209704 4.08956772 -1 7 C-1.66 7 -2.32 7 -3 7 C-3.1546875 7.8971875 -3.1546875 7.8971875 -3.3125 8.8125 C-4.09423531 11.29983964 -5.1264074 12.24696028 -7 14 C-5.97003906 13.98839844 -4.94007813 13.97679687 -3.87890625 13.96484375 C4.54475352 13.90198806 12.88880818 14.0538918 21.28881836 14.73217773 C24.42278168 14.96162248 27.17319274 14.97092836 30.28125 14.44921875 C34.03474251 13.82902961 35.87033318 14.96207742 39 17 C39.495 18.485 39.495 18.485 40 20 C40.66 20 41.32 20 42 20 C42 20.66 42 21.32 42 22 C42.66 22 43.32 22 44 22 C44.495 24.475 44.495 24.475 45 27 C43.85373678 26.02133662 42.70800212 25.04205413 41.5625 24.0625 C40.92441406 23.51722656 40.28632813 22.97195313 39.62890625 22.41015625 C38.73008851 21.63204305 37.84063472 20.84063472 37 20 C35.40665785 19.81857968 33.80591678 19.70156286 32.20483398 19.61108398 C31.18385117 19.55109726 30.16286835 19.49111053 29.11094666 19.42930603 C27.44534447 19.33861595 27.44534447 19.33861595 25.74609375 19.24609375 C24.61551041 19.18092056 23.48492706 19.11574738 22.32008362 19.04859924 C18.69279025 18.84051651 15.06516754 18.63894394 11.4375 18.4375 C8.9850017 18.29795322 6.53252734 18.1579849 4.08007812 18.01757812 C-1.94634477 17.67348529 -7.97305094 17.33474312 -14 17 C-13.67 15.68 -13.34 14.36 -13 13 C-12.34 13 -11.68 13 -11 13 C-10.75378906 12.41476562 -10.50757813 11.82953125 -10.25390625 11.2265625 C-8.80626232 8.65597983 -7.20757518 7.24544307 -4.9375 5.375 C-2.02124288 3.04514448 -2.02124288 3.04514448 0 0 Z " fill="#173CD9" transform="translate(140,250)"/>
<path d="M0 0 C0.66 1.32 1.32 2.64 2 4 C1.01 4.33 0.02 4.66 -1 5 C-2.4587688 6.29078411 -2.4587688 6.29078411 -4 8 C-6.63891357 10.78155755 -9.0301346 13.01970339 -12.25 15.125 C-15.26003892 16.77064122 -15.26003892 16.77064122 -16 20 C-16.639375 20.12375 -17.27875 20.2475 -17.9375 20.375 C-18.618125 20.58125 -19.29875 20.7875 -20 21 C-21.29660434 23.49034386 -21.29660434 23.49034386 -22 26 C-22.66 26 -23.32 26 -24 26 C-23.979375 27.03125 -23.95875 28.0625 -23.9375 29.125 C-24.30613758 31.96466136 -24.79741223 32.8247141 -27 34.73046875 C-28.60070514 35.76938795 -30.22456844 36.77362357 -31.87109375 37.73828125 C-34.42240003 39.25033984 -35.77489052 40.23462775 -36.625 43.125 C-36.74875 43.74375 -36.8725 44.3625 -37 45 C-37.66 45 -38.32 45 -39 45 C-39.0825 45.61875 -39.165 46.2375 -39.25 46.875 C-40 49 -40 49 -42.0625 50.25 C-42.701875 50.4975 -43.34125 50.745 -44 51 C-44 51.66 -44 52.32 -44 53 C-45.32 53.66 -46.64 54.32 -48 55 C-46.61624869 51.16009012 -44.83690651 48.02947436 -42.5 44.6875 C-41.8915625 43.80449219 -41.283125 42.92148437 -40.65625 42.01171875 C-40.1096875 41.34785156 -39.563125 40.68398438 -39 40 C-38.34 40 -37.68 40 -37 40 C-36.773125 39.29875 -36.54625 38.5975 -36.3125 37.875 C-34.66158712 34.25871465 -32.7091165 31.91230024 -30 29 C-29.34 29 -28.68 29 -28 29 C-27.5359375 28.071875 -27.5359375 28.071875 -27.0625 27.125 C-26.375 25.75 -25.6875 24.375 -25 23 C-24.34 23 -23.68 23 -23 23 C-22.7525 22.42765625 -22.505 21.8553125 -22.25 21.265625 C-20.80683801 18.64989389 -19.11783778 16.85226544 -17 14.75 C-15.948125 13.69039063 -15.948125 13.69039063 -14.875 12.609375 C-13 11 -13 11 -11 11 C-11 10.34 -11 9.68 -11 9 C-10.34 9 -9.68 9 -9 9 C-9 8.34 -9 7.68 -9 7 C-7.03125 5.2734375 -7.03125 5.2734375 -4.5 3.375 C-3.6646875 2.74335938 -2.829375 2.11171875 -1.96875 1.4609375 C-1.3190625 0.97882813 -0.669375 0.49671875 0 0 Z " fill="#3C52C6" transform="translate(240,247)"/>
<path d="M0 0 C0 3.24676971 -0.43725502 4.08387419 -2.08203125 6.765625 C-2.51966797 7.49136719 -2.95730469 8.21710938 -3.40820312 8.96484375 C-4.10333008 10.09599609 -4.10333008 10.09599609 -4.8125 11.25 C-7.95721287 16.39099993 -10.76801456 21.39408308 -13 27 C-12.360625 27.226875 -11.72125 27.45375 -11.0625 27.6875 C-9 29 -9 29 -8.09375 31.21875 C-7.9563609 35.29462663 -9.79309619 36.80584909 -12.4375 39.8125 C-13.28183594 40.78832031 -14.12617188 41.76414062 -14.99609375 42.76953125 C-15.65738281 43.50558594 -16.31867188 44.24164063 -17 45 C-18.32 44.34 -19.64 43.68 -21 43 C-20.01 42.505 -20.01 42.505 -19 42 C-18.34 42.33 -17.68 42.66 -17 43 C-15.93283373 37.66416864 -16.16363569 33.04298056 -16.84375 27.6484375 C-17.0721293 23.77740838 -16.21798406 20.65395217 -15 17 C-13.35 17 -11.7 17 -10 17 C-10.020625 16.278125 -10.04125 15.55625 -10.0625 14.8125 C-9.9582915 10.12311765 -8.84170414 6.29730966 -7 2 C-6.67 2.99 -6.34 3.98 -6 5 C-5.34 5 -4.68 5 -4 5 C-4 4.34 -4 3.68 -4 3 C-3.34 3 -2.68 3 -2 3 C-2 2.34 -2 1.68 -2 1 C-1.34 0.67 -0.68 0.34 0 0 Z " fill="#0E34DE" transform="translate(212,241)"/>
<path d="M0 0 C0.23955075 6.70742098 -0.66988575 12.91033274 -1.875 19.5 C-2.04902344 20.49386719 -2.22304688 21.48773438 -2.40234375 22.51171875 C-3.3943727 28.07442922 -4.5562398 33.53712357 -6 39 C-8.58225813 35.18900938 -7.89532475 32.21927991 -7.1875 27.8125 C-6.99542969 26.56082031 -6.80335938 25.30914062 -6.60546875 24.01953125 C-6 21 -6 21 -5 20 C-4.76257503 18.08887553 -4.58502428 16.17015727 -4.4375 14.25 C-4.35371094 13.20328125 -4.26992188 12.1565625 -4.18359375 11.078125 C-4.02234511 8.37463715 -3.96490802 5.70709587 -4 3 C-6.58373234 3.30944701 -9.16695133 3.62243957 -11.75 3.9375 C-12.47960937 4.02451172 -13.20921875 4.11152344 -13.9609375 4.20117188 C-18.03462425 4.68580769 -18.03462425 4.68580769 -22.04101562 5.54101562 C-24.99781071 6.23378416 -27.73933531 5.83345982 -30.75 5.5625 C-31.92046875 5.46066406 -33.0909375 5.35882813 -34.296875 5.25390625 C-35.18890625 5.17011719 -36.0809375 5.08632812 -37 5 C-29.85739149 1.07728594 -21.10144824 0.81951053 -13.125 -0.1875 C-12.03699097 -0.33155273 -12.03699097 -0.33155273 -10.92700195 -0.47851562 C-7.04960652 -0.94223936 -3.77849894 -1.04464383 0 0 Z " fill="#3851C7" transform="translate(377,122)"/>
<path d="M0 0 C0.99 0.33 1.98 0.66 3 1 C2.69285537 4.13499351 2.51556247 5.57276098 0.0390625 7.625 C-0.75757813 8.07875 -1.55421875 8.5325 -2.375 9 C-6.08682066 11.27062247 -8.02041662 13.04083324 -10 17 C-10.66 17 -11.32 17 -12 17 C-12.226875 17.721875 -12.45375 18.44375 -12.6875 19.1875 C-14.26919718 22.57685109 -16.20114502 24.5424688 -19 27 C-19.99 27.33 -20.98 27.66 -22 28 C-22.33 28.99 -22.66 29.98 -23 31 C-23.804375 31.474375 -24.60875 31.94875 -25.4375 32.4375 C-28.12859867 33.74387086 -28.12859867 33.74387086 -28.9375 36.125 C-29.288125 36.74375 -29.63875 37.3625 -30 38 C-33.125 38.75 -33.125 38.75 -36 39 C-36 39.66 -36 40.32 -36 41 C-37.485 41.495 -37.485 41.495 -39 42 C-39 41.34 -39 40.68 -39 40 C-38.34 40 -37.68 40 -37 40 C-37 39.34 -37 38.68 -37 38 C-36.34 38 -35.68 38 -35 38 C-35 37.34 -35 36.68 -35 36 C-34.34 36 -33.68 36 -33 36 C-32.67 35.01 -32.34 34.02 -32 33 C-31.34 33 -30.68 33 -30 33 C-30 32.34 -30 31.68 -30 31 C-29.34 31 -28.68 31 -28 31 C-28 30.34 -28 29.68 -28 29 C-27.34 29 -26.68 29 -26 29 C-26 28.34 -26 27.68 -26 27 C-25.34 27 -24.68 27 -24 27 C-24 26.34 -24 25.68 -24 25 C-23.34 25 -22.68 25 -22 25 C-22 24.34 -22 23.68 -22 23 C-21.34 23 -20.68 23 -20 23 C-20 22.34 -20 21.68 -20 21 C-19.34 21 -18.68 21 -18 21 C-18 20.34 -18 19.68 -18 19 C-17.34 19 -16.68 19 -16 19 C-16 18.34 -16 17.68 -16 17 C-15.34 17 -14.68 17 -14 17 C-14 16.34 -14 15.68 -14 15 C-13.34 15 -12.68 15 -12 15 C-11.67 14.01 -11.34 13.02 -11 12 C-10.34 12 -9.68 12 -9 12 C-9 11.34 -9 10.68 -9 10 C-8.34 10 -7.68 10 -7 10 C-7 9.34 -7 8.68 -7 8 C-6.34 8 -5.68 8 -5 8 C-5 7.34 -5 6.68 -5 6 C-4.34 6 -3.68 6 -3 6 C-3 5.34 -3 4.68 -3 4 C-2.34 3.67 -1.68 3.34 -1 3 C-0.67 2.01 -0.34 1.02 0 0 Z " fill="#183BDA" transform="translate(354,141)"/>
<path d="M0 0 C-0.4125 0.86625 -0.825 1.7325 -1.25 2.625 C-2.42586021 6.10500427 -2.42586021 6.10500427 -0.125 9.1875 C0.57625 10.115625 1.2775 11.04375 2 12 C2 12.99 2 13.98 2 15 C1.01 15.495 1.01 15.495 0 16 C-0.33 16.99 -0.66 17.98 -1 19 C-1.99 19.33 -2.98 19.66 -4 20 C-4.350625 19.21625 -4.70125 18.4325 -5.0625 17.625 C-7.61665844 14.16452728 -9.88222494 13.85463256 -14 13 C-6.57142857 0 -6.57142857 0 0 0 Z " fill="#0D35F0" transform="translate(278,152)"/>
<path d="M0 0 C0.66 0.33 1.32 0.66 2 1 C2 5 2 5 0.171875 7 C-0.62734375 7.66 -1.4265625 8.32 -2.25 9 C-6.5150861 12.56817661 -10.38573957 16.16306614 -13.875 20.5 C-16.6289825 23.75025853 -19.29736276 25.89622884 -23 28 C-23.66 28 -24.32 28 -25 28 C-25 28.99 -25 29.98 -25 31 C-26.65 31 -28.3 31 -30 31 C-29.0919838 29.86800647 -28.17316174 28.74467637 -27.25 27.625 C-26.48429688 26.68527344 -26.48429688 26.68527344 -25.703125 25.7265625 C-23.91800519 23.91687682 -22.32050356 22.99882545 -20 22 C-20 21.34 -20 20.68 -20 20 C-19.34 20 -18.68 20 -18 20 C-18 19.34 -18 18.68 -18 18 C-17.34 18 -16.68 18 -16 18 C-15.773125 17.443125 -15.54625 16.88625 -15.3125 16.3125 C-13.62449964 13.33840412 -11.53323483 11.27991135 -9 9 C-8.34 9 -7.68 9 -7 9 C-7 8.34 -7 7.68 -7 7 C-5.37660195 5.29115995 -3.70680947 3.62553283 -2 2 C-1.34 1.34 -0.68 0.68 0 0 Z " fill="#3C59CF" transform="translate(186,204)"/>
<path d="M0 0 C2 3 2 3 2.12329102 5.65869141 C0.40148533 10.78032422 -3.14210828 13.75675208 -6.97265625 17.4609375 C-7.77029892 18.25150543 -8.56794159 19.04207336 -9.38975525 19.8565979 C-11.93582932 22.37472188 -14.49874674 24.87489027 -17.0625 27.375 C-18.79345731 29.08087566 -20.52328917 30.78789414 -22.25195312 32.49609375 C-26.48834014 36.67740284 -30.73868357 40.84410845 -35 45 C-35.66 44.34 -36.32 43.68 -37 43 C-36.236875 42.2575 -35.47375 41.515 -34.6875 40.75 C-32.04428801 38.176446 -32.04428801 38.176446 -30.3125 35.6875 C-29.879375 35.130625 -29.44625 34.57375 -29 34 C-28.34 34 -27.68 34 -27 34 C-27 33.01 -27 32.02 -27 31 C-26.01 31 -25.02 31 -24 31 C-24 30.01 -24 29.02 -24 28 C-23.01 28 -22.02 28 -21 28 C-21 27.34 -21 26.68 -21 26 C-20.34 26 -19.68 26 -19 26 C-19 25.01 -19 24.02 -19 23 C-17.68 23 -16.36 23 -15 23 C-14.71125 22.236875 -14.4225 21.47375 -14.125 20.6875 C-13 18 -13 18 -11 15 C-9.68 15 -8.36 15 -7 15 C-6.731875 14.401875 -6.46375 13.80375 -6.1875 13.1875 C-5.00082594 11.00152146 -3.90400887 9.58667406 -2 8 C-1.34 8 -0.68 8 0 8 C0 5.36 0 2.72 0 0 Z " fill="#3C59C9" transform="translate(295,304)"/>
<path d="M0 0 C-4.62762048 4.63761534 -9.89740094 5.55060726 -16.0625 7 C-18.12836649 7.50994241 -20.19348161 8.02293892 -22.2578125 8.5390625 C-23.2468457 8.7855957 -24.23587891 9.03212891 -25.25488281 9.28613281 C-30.26261514 10.58839262 -35.14064042 12.22345994 -40 14 C-40.33 13.34 -40.66 12.68 -41 12 C-40.195625 11.525625 -39.39125 11.05125 -38.5625 10.5625 C-36.15246512 9.23099846 -36.15246512 9.23099846 -35 8 C-33.00041636 7.95919217 -30.99954746 7.95745644 -29 8 C-28.67 7.01 -28.34 6.02 -28 5 C-26.948125 4.87625 -25.89625 4.7525 -24.8125 4.625 C-21.09963555 4.15746422 -21.09963555 4.15746422 -18.1875 2.875 C-17.465625 2.58625 -16.74375 2.2975 -16 2 C-15.34 2.33 -14.68 2.66 -14 3 C-14 2.34 -14 1.68 -14 1 C-9.23692563 0.04738513 -4.8333472 -0.08333357 0 0 Z " fill="#1E41D3" transform="translate(353,139)"/>
<path d="M0 0 C0.66 0 1.32 0 2 0 C0.66511872 3.59391114 -0.96022723 6.75490696 -3 10 C-0.36 10.33 2.28 10.66 5 11 C4.67 11.99 4.34 12.98 4 14 C3.34 14 2.68 14 2 14 C1.731875 14.57621094 1.46375 15.15242188 1.1875 15.74609375 C-0.02862441 18.05432988 -1.40878304 19.997896 -3 22.0625 C-4.75121278 24.34345464 -6.40257851 26.60386777 -8 29 C-8.33 27.68 -8.66 26.36 -9 25 C-8.34 25 -7.68 25 -7 25 C-6.814375 23.88625 -6.814375 23.88625 -6.625 22.75 C-6.04513299 20.19858515 -5.26291261 18.2732427 -4 16 C-5.32 16 -6.64 16 -8 16 C-8 15.34 -8 14.68 -8 14 C-8.99 13.67 -9.98 13.34 -11 13 C-10.34 12.67 -9.68 12.34 -9 12 C-9 11.01 -9 10.02 -9 9 C-8.195625 8.525625 -7.39125 8.05125 -6.5625 7.5625 C-3.8421105 6.26644144 -3.8421105 6.26644144 -3.1875 3.8125 C-3.125625 3.214375 -3.06375 2.61625 -3 2 C-2.01 2 -1.02 2 0 2 C0 1.34 0 0.68 0 0 Z " fill="#0932EB" transform="translate(164,306)"/>
<path d="M0 0 C2.5 0.8125 2.5 0.8125 5 3 C5.46346554 6.69681924 5.28328381 10.29212965 5 14 C6.31554985 13.5504955 7.62738358 13.09010284 8.9375 12.625 C9.66839844 12.36976563 10.39929688 12.11453125 11.15234375 11.8515625 C13.18682116 11.14728587 13.18682116 11.14728587 14 9 C14.99 8.67 15.98 8.34 17 8 C17.66 7.34 18.32 6.68 19 6 C19.66 6.33 20.32 6.66 21 7 C21 6.34 21 5.68 21 5 C21.99 5.33 22.98 5.66 24 6 C9.68299712 18 9.68299712 18 1 18 C1.144375 17.154375 1.28875 16.30875 1.4375 15.4375 C2.0058797 11.96406851 2.51202393 8.48554338 3 5 C2.38511719 5.56589844 1.77023438 6.13179688 1.13671875 6.71484375 C0.32847656 7.44832031 -0.47976562 8.18179687 -1.3125 8.9375 C-2.11300781 9.66839844 -2.91351563 10.39929688 -3.73828125 11.15234375 C-6 13 -6 13 -9 14 C-8.34 12.02 -7.68 10.04 -7 8 C-6.67 8.66 -6.34 9.32 -6 10 C-5.34 10 -4.68 10 -4 10 C-3.79503906 9.36191406 -3.59007812 8.72382813 -3.37890625 8.06640625 C-3.10949219 7.24011719 -2.84007812 6.41382813 -2.5625 5.5625 C-2.16224609 4.32693359 -2.16224609 4.32693359 -1.75390625 3.06640625 C-1 1 -1 1 0 0 Z " fill="#2A46BA" transform="translate(167,357)"/>
<path d="M0 0 C2 3.75 2 3.75 2 6 C2.66 6.33 3.32 6.66 4 7 C4.33 5.68 4.66 4.36 5 3 C7.97 3 10.94 3 14 3 C9.5737191 6.71236463 4.83793272 9.85974185 0 13 C-1.423125 13.928125 -1.423125 13.928125 -2.875 14.875 C-5 16 -5 16 -8 16 C-7.43555175 11.65136348 -5.84572036 8.82172345 -3.4375 5.1875 C-2.79683594 4.21167969 -2.15617188 3.23585938 -1.49609375 2.23046875 C-0.75552734 1.12638672 -0.75552734 1.12638672 0 0 Z " fill="#2A48D3" transform="translate(191,302)"/>
<path d="M0 0 C0.33 0 0.66 0 1 0 C1 4.29 1 8.58 1 13 C2.299375 12.525625 3.59875 12.05125 4.9375 11.5625 C8.13392782 10.4853886 11.01439942 9.80558142 14.375 9.5625 C19.13327338 9.17714687 23.20757303 7.60494584 27.6171875 5.83984375 C30 5 30 5 33 5 C33.33 4.01 33.66 3.02 34 2 C35.65 2 37.3 2 39 2 C28.24880591 11.40729483 12.95928103 14.86455609 -1 16 C-1.33 15.67 -1.66 15.34 -2 15 C-1.9140625 13.14453125 -1.9140625 13.14453125 -1.625 10.8125 C-1.52574219 10.00554687 -1.42648438 9.19859375 -1.32421875 8.3671875 C-0.94070761 5.56709409 -0.49929199 2.78176966 0 0 Z " fill="#2D4EBD" transform="translate(119,369)"/>
<path d="M0 0 C0.66 0 1.32 0 2 0 C1.52372025 1.95903745 1.04388577 3.91721097 0.5625 5.875 C0.29566406 6.96554687 0.02882812 8.05609375 -0.24609375 9.1796875 C-1 12 -1 12 -2 14 C6.54858869 11.8908155 14.15623852 8.94820209 22 5 C22 5.66 22 6.32 22 7 C22.66 7 23.32 7 24 7 C24 7.66 24 8.32 24 9 C21.36 9.66 18.72 10.32 16 11 C16 11.66 16 12.32 16 13 C12.12409112 15.99040161 9.19549763 16.36081604 4.375 16.25 C3.24835938 16.23453125 2.12171875 16.2190625 0.9609375 16.203125 C-2 16 -2 16 -5 15 C-5 14.34 -5 13.68 -5 13 C-4.34 13 -3.68 13 -3 13 C-3.0928125 11.7315625 -3.0928125 11.7315625 -3.1875 10.4375 C-2.95984372 6.26380157 -1.79792186 3.74567053 0 0 Z " fill="#233FC9" transform="translate(154,335)"/>
<path d="M0 0 C0.66 0.33 1.32 0.66 2 1 C-2.38352836 7.49777033 -7.0545774 13.63843596 -12.08203125 19.65234375 C-14.0999273 22.04497059 -14.0999273 22.04497059 -16 25 C-16.66 25 -17.32 25 -18 25 C-18.2475 25.598125 -18.495 26.19625 -18.75 26.8125 C-20.16370012 29.28647521 -21.65055383 30.43370255 -24 32 C-23.62403791 29.21788056 -23.32681541 27.4120716 -21.5625 25.1875 C-20 24 -20 24 -18 24 C-18 23.34 -18 22.68 -18 22 C-17.34 22 -16.68 22 -16 22 C-15.67 19.69 -15.34 17.38 -15 15 C-14.34 15 -13.68 15 -13 15 C-13 14.01 -13 13.02 -13 12 C-11.35443434 10.96564444 -9.6829392 9.97236487 -8 9 C-4.53797047 5.85296606 -4.53797047 5.85296606 -2 2 C-1.34 2 -0.68 2 0 2 C0 1.34 0 0.68 0 0 Z " fill="#354DBF" transform="translate(337,231)"/>
<path d="M0 0 C0.66 0.33 1.32 0.66 2 1 C1.67 1.66 1.34 2.32 1 3 C0.34 3 -0.32 3 -1 3 C-1.103125 3.639375 -1.20625 4.27875 -1.3125 4.9375 C-1.539375 5.618125 -1.76625 6.29875 -2 7 C-2.99 7.33 -3.98 7.66 -5 8 C-6.01187895 9.65948148 -7.0126546 11.32580562 -8 13 C-8.66 13 -9.32 13 -10 13 C-10.33 14.32 -10.66 15.64 -11 17 C-11.99 17 -12.98 17 -14 17 C-14.66 18.32 -15.32 19.64 -16 21 C-16.66 21 -17.32 21 -18 21 C-18.33 22.98 -18.66 24.96 -19 27 C-22.13349732 28.04449911 -22.98968256 27.93423645 -26 27 C-26.33 27.99 -26.66 28.98 -27 30 C-27.99 29.67 -28.98 29.34 -30 29 C-30.33 28.34 -30.66 27.68 -31 27 C-28.03 26.01 -25.06 25.02 -22 24 C-22 23.34 -22 22.68 -22 22 C-21.34 22 -20.68 22 -20 22 C-20 21.34 -20 20.68 -20 20 C-19.34 20 -18.68 20 -18 20 C-18 19.34 -18 18.68 -18 18 C-15.625 15.375 -15.625 15.375 -13 13 C-12.34 13 -11.68 13 -11 13 C-11 12.34 -11 11.68 -11 11 C-10.34 11 -9.68 11 -9 11 C-9 10.34 -9 9.68 -9 9 C-8.34 9 -7.68 9 -7 9 C-6.731875 8.401875 -6.46375 7.80375 -6.1875 7.1875 C-5.00082594 5.00152146 -3.90400887 3.58667406 -2 2 C-1.34 2 -0.68 2 0 2 C0 1.34 0 0.68 0 0 Z " fill="#3C54C2" transform="translate(285,211)"/>
<path d="M0 0 C0.33 0.66 0.66 1.32 1 2 C0.11157533 4.51230023 -0.83219967 6.92789523 -1.875 9.375 C-3.86861111 14.12689497 -5.60791147 18.59145619 -6.4375 23.6875 C-6.623125 24.450625 -6.80875 25.21375 -7 26 C-7.66 26.33 -8.32 26.66 -9 27 C-9.73075648 29.3140622 -10.40138258 31.64828869 -11 34 C-11.144375 33.401875 -11.28875 32.80375 -11.4375 32.1875 C-11.8872439 30.43849596 -12.42892341 28.71322977 -13 27 C-11.5066873 17.33080025 -6.0062045 7.58100203 0 0 Z " fill="#2947D5" transform="translate(133,339)"/>
<path d="M0 0 C1.32 0.66 2.64 1.32 4 2 C4.28571429 10.57142857 4.28571429 10.57142857 2 14 C-2.38366119 12.80445604 -5.15378323 11.6125059 -8 8 C-8 7.01 -8 6.02 -8 5 C-7.05125 4.731875 -6.1025 4.46375 -5.125 4.1875 C-1.74732727 3.25013412 -1.74732727 3.25013412 0 0 Z " fill="#1137E5" transform="translate(193,270)"/>
<path d="M0 0 C0.58203125 1.890625 0.58203125 1.890625 1 4 C-0.3125 5.75 -0.3125 5.75 -2 7 C-2.66 7 -3.32 7 -4 7 C-4 8.32 -4 9.64 -4 11 C-4.66 11 -5.32 11 -6 11 C-6.33 11.99 -6.66 12.98 -7 14 C-7.66 14 -8.32 14 -9 14 C-9.99 17.3 -10.98 20.6 -12 24 C-9.69 24 -7.38 24 -5 24 C-12.71428571 28 -12.71428571 28 -17 28 C-13.65713464 16.50380451 -8.27378342 8.63429686 0 0 Z " fill="#3E53C2" transform="translate(143,306)"/>
<path d="M0 0 C0.99 0 1.98 0 3 0 C3.6976874 8.14684214 4.28162626 15.88303369 3 24 C0.79086 20.68629 0.77518447 19.6553979 0.875 15.8125 C0.89304688 14.91144531 0.91109375 14.01039063 0.9296875 13.08203125 C0.95289063 12.39496094 0.97609375 11.70789063 1 11 C0.01 11 -0.98 11 -2 11 C-2.33 12.65 -2.66 14.3 -3 16 C-3.99 16 -4.98 16 -6 16 C-5.19110952 13.51960151 -4.37808099 11.04069788 -3.5625 8.5625 C-3.33240234 7.85544922 -3.10230469 7.14839844 -2.86523438 6.41992188 C-1.11328125 1.11328125 -1.11328125 1.11328125 0 0 Z " fill="#273DB8" transform="translate(206,312)"/>
<path d="M0 0 C2.97 0.495 2.97 0.495 6 1 C6 1.66 6 2.32 6 3 C6.66 3 7.32 3 8 3 C8 3.99 8 4.98 8 6 C8.66 6 9.32 6 10 6 C14.07056853 14.14113707 12.11181642 26.69035304 12.0625 35.625 C12.05747395 37.21744651 12.052913 38.80989455 12.04882812 40.40234375 C12.03791237 44.26826779 12.02070895 48.13411653 12 52 C11.67 52 11.34 52 11 52 C10.97494385 51.3608667 10.9498877 50.7217334 10.92407227 50.06323242 C10.80642853 47.10453255 10.68448222 44.14602406 10.5625 41.1875 C10.52318359 40.18267578 10.48386719 39.17785156 10.44335938 38.14257812 C10.1949198 32.19913916 9.77808907 26.30238472 9.20727539 20.3815918 C8.97250502 17.68408304 8.8982665 15.0196118 8.9375 12.3125 C8.94652344 11.48363281 8.95554688 10.65476562 8.96484375 9.80078125 C8.97644531 9.20652344 8.98804688 8.61226563 9 8 C8.34 8 7.68 8 7 8 C7 7.34 7 6.68 7 6 C6.34 6 5.68 6 5 6 C5 5.34 5 4.68 5 4 C4.360625 3.71125 3.72125 3.4225 3.0625 3.125 C1 2 1 2 0 0 Z " fill="#3956B9" transform="translate(222,314)"/>
<path d="M0 0 C-0.33 1.32 -0.66 2.64 -1 4 C-8.42857143 6.42857143 -8.42857143 6.42857143 -12 5 C-11.67 4.34 -11.34 3.68 -11 3 C-15.95 2.67 -20.9 2.34 -26 2 C-18.06430967 -1.96784516 -8.58302737 -1.71660547 0 0 Z " fill="#3E54BA" transform="translate(189,293)"/>
<path d="M0 0 C0.66 0 1.32 0 2 0 C1.690625 0.598125 1.38125 1.19625 1.0625 1.8125 C-0.10209704 4.08956772 -0.10209704 4.08956772 -1 7 C-1.66 7 -2.32 7 -3 7 C-3.12375 7.639375 -3.2475 8.27875 -3.375 8.9375 C-3.58125 9.618125 -3.7875 10.29875 -4 11 C-4.99 11.495 -4.99 11.495 -6 12 C-6 12.99 -6 13.98 -6 15 C-2.7 15.33 0.6 15.66 4 16 C4 16.33 4 16.66 4 17 C-1.94 17 -7.88 17 -14 17 C-13.67 15.68 -13.34 14.36 -13 13 C-12.34 13 -11.68 13 -11 13 C-10.75378906 12.41476562 -10.50757813 11.82953125 -10.25390625 11.2265625 C-8.80626232 8.65597983 -7.20757518 7.24544307 -4.9375 5.375 C-2.02124288 3.04514448 -2.02124288 3.04514448 0 0 Z " fill="#1E3AC3" transform="translate(140,250)"/>
<path d="M0 0 C-1.61068359 0.90492188 -1.61068359 0.90492188 -3.25390625 1.828125 C-4.69011144 2.63540373 -6.12630894 3.44269613 -7.5625 4.25 C-8.26697266 4.64574219 -8.97144531 5.04148438 -9.69726562 5.44921875 C-14.14199666 7.94809979 -18.57567024 10.46516718 -23 13 C-23.33 12.34 -23.66 11.68 -24 11 C-23.34 11 -22.68 11 -22 11 C-21.67 9.68 -21.34 8.36 -21 7 C-20.34 7 -19.68 7 -19 7 C-19.33 5.35 -19.66 3.7 -20 2 C-19.0925 2.20625 -18.185 2.4125 -17.25 2.625 C-13.71042179 3.03341287 -12.94610689 2.74925096 -10 1 C-6.11616549 -0.53735116 -3.98335635 -1.21045958 0 0 Z " fill="#2544CE" transform="translate(299,160)"/>
<path d="M0 0 C6.625 -0.25 6.625 -0.25 10 2 C10 2.66 10 3.32 10 4 C10.66 4 11.32 4 12 4 C12.33 4.66 12.66 5.32 13 6 C13.99 6.33 14.98 6.66 16 7 C16.33 8.98 16.66 10.96 17 13 C16.01 13 15.02 13 14 13 C13.67 12.01 13.34 11.02 13 10 C11.67661368 9.31379969 10.34050052 8.65213539 9 8 C6.93277924 6.40283189 4.97842146 4.70863672 3 3 C1.02 3.99 1.02 3.99 -1 5 C-1 2 -1 2 0 0 Z " fill="#0F2FD3" transform="translate(206,300)"/>
<path d="M0 0 C0.99 0.33 1.98 0.66 3 1 C-2.15922961 7.38115241 -2.15922961 7.38115241 -5.58984375 9.90625 C-9.93500721 13.14797884 -13.05382378 15.61457554 -13.86328125 21.1328125 C-14.19467166 25.10115784 -14.16588148 29.02372338 -14 33 C-14.33 33 -14.66 33 -15 33 C-15.08120751 30.10359882 -15.14059421 27.20949088 -15.1875 24.3125 C-15.21263672 23.49587891 -15.23777344 22.67925781 -15.26367188 21.83789062 C-15.32110336 17.10936509 -15.23244002 13.75865119 -12 10 C-10.00577205 9.63371323 -8.00546689 9.29868656 -6 9 C-4.59145334 7.18298142 -4.59145334 7.18298142 -4 5 C-3.67 4.01 -3.34 3.02 -3 2 C-2.01 2 -1.02 2 0 2 C0 1.34 0 0.68 0 0 Z " fill="#4158CC" transform="translate(310,262)"/>
<path d="M0 0 C1.32 0.66 2.64 1.32 4 2 C1.58475037 6.18115346 -1.12228192 10.08462984 -3.9375 14 C-4.36740234 14.60328125 -4.79730469 15.2065625 -5.24023438 15.828125 C-7.72960318 19.30341984 -10.295489 22.68681715 -13 26 C-13.33 24.68 -13.66 23.36 -14 22 C-13.34 22 -12.68 22 -12 22 C-12 21.01 -12 20.02 -12 19 C-11.34 19 -10.68 19 -10 19 C-9.7525 18.071875 -9.505 17.14375 -9.25 16.1875 C-7.89117023 12.72248408 -6.92011407 12.07233902 -4 10 C-3.3574765 7.93125966 -3.3574765 7.93125966 -3 6 C-2.34 5.67 -1.68 5.34 -1 5 C-0.34444881 2.47266765 -0.34444881 2.47266765 0 0 Z " fill="#3049CB" transform="translate(227,214)"/>
<path d="M0 0 C0.66 0 1.32 0 2 0 C0.43209038 5.01731079 -2.46401455 9.15993717 -6 13 C-8.75 14.3125 -8.75 14.3125 -11 15 C-11.99 16.485 -11.99 16.485 -13 18 C-15.125 18.6875 -15.125 18.6875 -17 19 C-17 18.34 -17 17.68 -17 17 C-16.34 17 -15.68 17 -15 17 C-15 16.34 -15 15.68 -15 15 C-14.34 15 -13.68 15 -13 15 C-13 14.34 -13 13.68 -13 13 C-12.34 13 -11.68 13 -11 13 C-11 12.34 -11 11.68 -11 11 C-10.34 11 -9.68 11 -9 11 C-9 10.34 -9 9.68 -9 9 C-8.34 9 -7.68 9 -7 9 C-6.731875 8.360625 -6.46375 7.72125 -6.1875 7.0625 C-5 5 -5 5 -2 4 C-2 3.34 -2 2.68 -2 2 C-1.34 2 -0.68 2 0 2 C0 1.34 0 0.68 0 0 Z " fill="#3653CC" transform="translate(304,192)"/>
<path d="M0 0 C0.99 0.33 1.98 0.66 3 1 C2.69285537 4.13499351 2.51556247 5.57276098 0.0390625 7.625 C-0.75757813 8.07875 -1.55421875 8.5325 -2.375 9 C-6.14479595 11.29880132 -7.83281848 13.12188571 -10 17 C-11.32 17 -12.64 17 -14 17 C-14 16.34 -14 15.68 -14 15 C-13.34 15 -12.68 15 -12 15 C-11.67 14.01 -11.34 13.02 -11 12 C-10.34 12 -9.68 12 -9 12 C-9 11.34 -9 10.68 -9 10 C-8.34 10 -7.68 10 -7 10 C-7 9.34 -7 8.68 -7 8 C-6.34 8 -5.68 8 -5 8 C-5 7.34 -5 6.68 -5 6 C-4.34 6 -3.68 6 -3 6 C-3 5.34 -3 4.68 -3 4 C-2.34 3.67 -1.68 3.34 -1 3 C-0.67 2.01 -0.34 1.02 0 0 Z " fill="#4E62CB" transform="translate(354,141)"/>
<path d="M0 0 C1.32 0.66 2.64 1.32 4 2 C0.86792618 5.74321017 -2.30828967 9.41449348 -5.6875 12.9375 C-6.24824219 13.52402344 -6.80898437 14.11054688 -7.38671875 14.71484375 C-9 16 -9 16 -12 16 C-12 14.02 -12 12.04 -12 10 C-11.01 9.67 -10.02 9.34 -9 9 C-9 9.66 -9 10.32 -9 11 C-8.34 11 -7.68 11 -7 11 C-7 10.01 -7 9.02 -7 8 C-6.21625 7.54625 -5.4325 7.0925 -4.625 6.625 C-1.55039988 4.72167612 -1.0093586 3.39511528 0 0 Z " fill="#3752C5" transform="translate(246,356)"/>
<path d="M0 0 C0.33 0.99 0.66 1.98 1 3 C-0.30135125 4.69175663 -1.63755204 6.35704805 -3 8 C-3.77833534 10.18214568 -3.77833534 10.18214568 -4 12 C-4.66 12 -5.32 12 -6 12 C-6.0825 12.61875 -6.165 13.2375 -6.25 13.875 C-7 16 -7 16 -9.0625 17.25 C-9.701875 17.4975 -10.34125 17.745 -11 18 C-11 18.66 -11 19.32 -11 20 C-12.98 20.99 -12.98 20.99 -15 22 C-13.61624869 18.16009012 -11.83690651 15.02947436 -9.5 11.6875 C-8.8915625 10.80449219 -8.283125 9.92148437 -7.65625 9.01171875 C-7.1096875 8.34785156 -6.563125 7.68398438 -6 7 C-5.34 7 -4.68 7 -4 7 C-3.71125 6.21625 -3.4225 5.4325 -3.125 4.625 C-2 2 -2 2 0 0 Z " fill="#3E59C5" transform="translate(207,280)"/>
<path d="M0 0 C0.99 0 1.98 0 3 0 C1.70476749 8.39001357 -1.0132516 16.08853669 -4 24 C-4.33 24 -4.66 24 -5 24 C-4.85892253 22.54119891 -4.71197585 21.08296449 -4.5625 19.625 C-4.48128906 18.81289062 -4.40007812 18.00078125 -4.31640625 17.1640625 C-4 15 -4 15 -3 13 C-2.72690486 10.47278622 -2.55442823 7.94588875 -2.37890625 5.41015625 C-2 3 -2 3 0 0 Z " fill="#3554C8" transform="translate(367,162)"/>
<path d="M0 0 C0.66 1.32 1.32 2.64 2 4 C0.02 4.99 0.02 4.99 -2 6 C-2 6.99 -2 7.98 -2 9 C-4.63144967 12.2506143 -6.20860192 13.80588349 -10.3125 14.8125 C-11.199375 14.874375 -12.08625 14.93625 -13 15 C-11.71480435 12.13302508 -10.42870746 10.02392288 -8 8 C-7.34 8 -6.68 8 -6 8 C-6 7.34 -6 6.68 -6 6 C-5.34 6 -4.68 6 -4 6 C-4 5.34 -4 4.68 -4 4 C-3.34 4 -2.68 4 -2 4 C-1.34 2.68 -0.68 1.36 0 0 Z " fill="#405ACB" transform="translate(155,235)"/>
<path d="M0 0 C0.66 0.33 1.32 0.66 2 1 C0.73412642 3.58587003 -0.53745849 6.16865501 -1.8125 8.75 C-2.16892578 9.47960937 -2.52535156 10.20921875 -2.89257812 10.9609375 C-4.67530517 14.55910218 -6.41088339 17.89632709 -9 21 C-9 19.35 -9 17.7 -9 16 C-8.34 16 -7.68 16 -7 16 C-7.99 14.02 -8.98 12.04 -10 10 C-8.576875 9.1028125 -8.576875 9.1028125 -7.125 8.1875 C-3.86035803 6.18437474 -3.86035803 6.18437474 -2 3 C-1.34 3 -0.68 3 0 3 C0 2.01 0 1.02 0 0 Z " fill="#2545CF" transform="translate(354,201)"/>
<path d="M0 0 C-2.61585474 2.61585474 -4.64762854 2.7433375 -8.25 3.5 C-11.68146008 4.22740628 -14.95170777 4.9835184 -18.2734375 6.1171875 C-21.09944135 7.03219734 -22.27587419 7.0477407 -25 6 C-21.56198425 3.7079895 -18.08491154 2.5527461 -14.1875 1.3125 C-13.48818359 1.07466797 -12.78886719 0.83683594 -12.06835938 0.59179688 C-7.66987077 -0.81127573 -4.59413038 -1.19000238 0 0 Z " fill="#3D5BC6" transform="translate(341,128)"/>
<path d="M0 0 C0.66 0 1.32 0 2 0 C0.66511872 3.59391114 -0.96022723 6.75490696 -3 10 C-0.36 10.33 2.28 10.66 5 11 C4.67 11.99 4.34 12.98 4 14 C3.34 14 2.68 14 2 14 C1.67 14.99 1.34 15.98 1 17 C0.67 15.68 0.34 14.36 0 13 C-1.65 13 -3.3 13 -5 13 C-5.625 10.625 -5.625 10.625 -6 8 C-5.34 7.34 -4.68 6.68 -4 6 C-3.3574765 3.93125966 -3.3574765 3.93125966 -3 2 C-2.01 2 -1.02 2 0 2 C0 1.34 0 0.68 0 0 Z " fill="#344EB3" transform="translate(164,306)"/>
<path d="M0 0 C0.33 0.66 0.66 1.32 1 2 C0.01 2.66 -0.98 3.32 -2 4 C-3.19232613 6.05003955 -3.19232613 6.05003955 -4 8 C-4.66 8 -5.32 8 -6 8 C-6 8.66 -6 9.32 -6 10 C-6.99 10 -7.98 10 -9 10 C-9.66 11.32 -10.32 12.64 -11 14 C-12.32 14 -13.64 14 -15 14 C-15.33 14.99 -15.66 15.98 -16 17 C-16.99 16.67 -17.98 16.34 -19 16 C-6.51480638 4.29384966 -6.51480638 4.29384966 0 0 Z " fill="#3E57C5" transform="translate(260,163)"/>
<path d="M0 0 C2.5 1.0625 2.5 1.0625 5 3 C5.3125 6.6875 5.3125 6.6875 5 10 C4.01 10.495 4.01 10.495 3 11 C3 9.02 3 7.04 3 5 C2.38511719 5.56589844 1.77023438 6.13179688 1.13671875 6.71484375 C0.32847656 7.44832031 -0.47976562 8.18179687 -1.3125 8.9375 C-2.11300781 9.66839844 -2.91351563 10.39929688 -3.73828125 11.15234375 C-6 13 -6 13 -9 14 C-8.34 12.02 -7.68 10.04 -7 8 C-6.67 8.66 -6.34 9.32 -6 10 C-5.34 10 -4.68 10 -4 10 C-3.79503906 9.36191406 -3.59007812 8.72382813 -3.37890625 8.06640625 C-3.10949219 7.24011719 -2.84007812 6.41382813 -2.5625 5.5625 C-2.16224609 4.32693359 -2.16224609 4.32693359 -1.75390625 3.06640625 C-1 1 -1 1 0 0 Z " fill="#4764DA" transform="translate(167,357)"/>
<path d="M0 0 C0.66 0.33 1.32 0.66 2 1 C0 4 0 4 -2.5625 4.5625 C-3.366875 4.706875 -4.17125 4.85125 -5 5 C-5.33 5.66 -5.66 6.32 -6 7 C-9.62639867 8.92334696 -12.89481793 10.11512313 -17 9.6875 C-17.66 9.460625 -18.32 9.23375 -19 9 C-18.67 8.34 -18.34 7.68 -18 7 C-15.35139573 6.40644386 -12.70802678 6.25790731 -10 6 C-10 4.68 -10 3.36 -10 2 C-7.36 2.33 -4.72 2.66 -2 3 C-2 2.34 -2 1.68 -2 1 C-1.34 0.67 -0.68 0.34 0 0 Z " fill="#0B34E2" transform="translate(158,367)"/>
<path d="M0 0 C0.66 0.33 1.32 0.66 2 1 C1.34 2.32 0.68 3.64 0 5 C-0.66 5 -1.32 5 -2 5 C-2.433125 5.86625 -2.433125 5.86625 -2.875 6.75 C-3.24625 7.4925 -3.6175 8.235 -4 9 C-4.2475 9.721875 -4.495 10.44375 -4.75 11.1875 C-6 13 -6 13 -9.125 13.75 C-10.548125 13.87375 -10.548125 13.87375 -12 14 C-12 14.66 -12 15.32 -12 16 C-12.99 16.33 -13.98 16.66 -15 17 C-15 16.34 -15 15.68 -15 15 C-14.34 15 -13.68 15 -13 15 C-13 14.34 -13 13.68 -13 13 C-12.34 13 -11.68 13 -11 13 C-11 12.34 -11 11.68 -11 11 C-10.34 11 -9.68 11 -9 11 C-8.67 10.01 -8.34 9.02 -8 8 C-7.34 8 -6.68 8 -6 8 C-6 7.34 -6 6.68 -6 6 C-5.34 6 -4.68 6 -4 6 C-4 5.34 -4 4.68 -4 4 C-3.34 4 -2.68 4 -2 4 C-2 3.34 -2 2.68 -2 2 C-1.34 2 -0.68 2 0 2 C0 1.34 0 0.68 0 0 Z " fill="#4862CB" transform="translate(330,166)"/>
<path d="M0 0 C-0.33 0.99 -0.66 1.98 -1 3 C-4.3125 4.125 -4.3125 4.125 -8 5 C-9.2065625 5.309375 -9.2065625 5.309375 -10.4375 5.625 C-10.953125 5.74875 -11.46875 5.8725 -12 6 C-12 6.99 -12 7.98 -12 9 C-15.13349732 10.04449911 -15.98968256 9.93423645 -19 9 C-5.97345133 -1.99115044 -5.97345133 -1.99115044 0 0 Z " fill="#435BCC" transform="translate(163,296)"/>
<path d="M0 0 C2.64 0 5.28 0 8 0 C8 3 8 3 6.25 5.0625 C4.21005384 6.81912031 2.45849217 7.9463605 0 9 C-0.33 8.01 -0.66 7.02 -1 6 C-0.67 5.67 -0.34 5.34 0 5 C-0.33 4.01 -0.66 3.02 -1 2 C-0.67 1.34 -0.34 0.68 0 0 Z " fill="#2747DB" transform="translate(170,295)"/>
<path d="M0 0 C0.66 0.33 1.32 0.66 2 1 C0.95020485 2.61250956 -0.11544469 4.21470328 -1.1875 5.8125 C-1.77917969 6.70582031 -2.37085938 7.59914062 -2.98046875 8.51953125 C-5.11774371 11.14461752 -7.08977995 12.33769755 -10 14 C-10.99 15.485 -10.99 15.485 -12 17 C-12.66 17 -13.32 17 -14 17 C-14.33 17.99 -14.66 18.98 -15 20 C-15 18.35 -15 16.7 -15 15 C-14.34 15 -13.68 15 -13 15 C-13 14.01 -13 13.02 -13 12 C-11.35443434 10.96564444 -9.6829392 9.97236487 -8 9 C-4.53797047 5.85296606 -4.53797047 5.85296606 -2 2 C-1.34 2 -0.68 2 0 2 C0 1.34 0 0.68 0 0 Z " fill="#1134DB" transform="translate(337,231)"/>
<path d="M0 0 C1 3 1 3 -0.1875 6.0625 C-2.10426222 9.16897671 -2.69440997 9.79698435 -6 11 C-8.65722656 11.13525391 -8.65722656 11.13525391 -11.640625 10.9765625 C-12.71054688 10.925 -13.78046875 10.8734375 -14.8828125 10.8203125 C-15.99398437 10.75585938 -17.10515625 10.69140625 -18.25 10.625 C-19.37664062 10.56828125 -20.50328125 10.5115625 -21.6640625 10.453125 C-24.44336528 10.31180452 -27.2217441 10.16040592 -30 10 C-30 9.67 -30 9.34 -30 9 C-28.95658447 9.01740234 -28.95658447 9.01740234 -27.89208984 9.03515625 C-24.7185649 9.06476101 -21.54846689 9.03294256 -18.375 9 C-17.28058594 9.01933594 -16.18617188 9.03867188 -15.05859375 9.05859375 C-8.97948736 9.0619013 -8.97948736 9.0619013 -3.88769531 6.15234375 C-2.39401655 4.16077206 -1.13283507 2.21397706 0 0 Z " fill="#7289DC" transform="translate(226,194)"/>
<path d="M0 0 C0 0.66 0 1.32 0 2 C-0.66 2 -1.32 2 -2 2 C-2 2.66 -2 3.32 -2 4 C-2.66 4 -3.32 4 -4 4 C-4.185625 4.70125 -4.37125 5.4025 -4.5625 6.125 C-6.54820026 10.09640051 -9.53933276 12.3073418 -13 15 C-13 12.22802547 -12.99259699 10.55102222 -12 8 C-9.78515625 5.859375 -9.78515625 5.859375 -7.0625 3.75 C-6.16660156 3.04359375 -5.27070313 2.3371875 -4.34765625 1.609375 C-2 0 -2 0 0 0 Z " fill="#1F3ECD" transform="translate(318,182)"/>
<path d="M0 0 C0.66 0.33 1.32 0.66 2 1 C2 5 2 5 0.03125 7.140625 C-1.22171875 8.18476563 -1.22171875 8.18476563 -2.5 9.25 C-3.3353125 9.95640625 -4.170625 10.6628125 -5.03125 11.390625 C-6.00578125 12.18726563 -6.00578125 12.18726563 -7 13 C-7.66 12.67 -8.32 12.34 -9 12 C-7.60090738 7.54834166 -5.39864635 5.14374788 -2 2 C-1.34 1.34 -0.68 0.68 0 0 Z " fill="#2F4BCE" transform="translate(186,204)"/>
<path d="M0 0 C1.65 0 3.3 0 5 0 C4.75 2.875 4.75 2.875 4 6 C2 7.1875 2 7.1875 0 8 C-0.33 8.99 -0.66 9.98 -1 11 C-2.32 10.34 -3.64 9.68 -5 9 C-3.38405168 6.95880212 -1.7143618 4.95927063 0 3 C0.66 3 1.32 3 2 3 C2 2.34 2 1.68 2 1 C1.34 0.67 0.68 0.34 0 0 Z " fill="#3356CE" transform="translate(139,329)"/>
<path d="M0 0 C2 0.3125 2 0.3125 4 1 C4.33 1.66 4.66 2.32 5 3 C8.02934491 3.65772428 8.02934491 3.65772428 11 4 C8 6 8 6 4.8125 5.625 C3.884375 5.41875 2.95625 5.2125 2 5 C1.67 6.32 1.34 7.64 1 9 C-0.32 8.34 -1.64 7.68 -3 7 C-1.125 1.125 -1.125 1.125 0 0 Z " fill="#0932E9" transform="translate(194,300)"/>
<path d="M0 0 C0 2 0 2 -2 4.0625 C-5.8484773 6.54797492 -8.46684529 6.69266748 -13 7 C-13 7.66 -13 8.32 -13 9 C-15.97 8.505 -15.97 8.505 -19 8 C-15.71414149 5.24020259 -12.37771204 3.81690532 -8.375 2.3125 C-7.22773438 1.87550781 -6.08046875 1.43851563 -4.8984375 0.98828125 C-2 0 -2 0 0 0 Z " fill="#3E58C9" transform="translate(315,134)"/>
<path d="M0 0 C1.32 0.99 2.64 1.98 4 3 C3.4887988 7.50343911 1.82478642 9.87525426 -1.0625 13.3125 C-1.79597656 14.19550781 -2.52945313 15.07851563 -3.28515625 15.98828125 C-4.13400391 16.98408203 -4.13400391 16.98408203 -5 18 C-6.32 17.34 -7.64 16.68 -9 16 C-8.34 15.67 -7.68 15.34 -7 15 C-6.34 15.33 -5.68 15.66 -5 16 C-4.5978125 14.88625 -4.5978125 14.88625 -4.1875 13.75 C-3 11 -3 11 -1.375 9.125 C0.59037183 6.08760717 0.20376305 3.53189293 0 0 Z " fill="#485EBA" transform="translate(200,268)"/>
<path d="M0 0 C0.33 0 0.66 0 1 0 C1 4.29 1 8.58 1 13 C4.63 13 8.26 13 12 13 C12 13.33 12 13.66 12 14 C9.85529407 14.36093104 7.70919203 14.71357589 5.5625 15.0625 C4.36753906 15.25972656 3.17257813 15.45695312 1.94140625 15.66015625 C0.97074219 15.77230469 0.00007813 15.88445312 -1 16 C-1.33 15.67 -1.66 15.34 -2 15 C-1.9140625 13.14453125 -1.9140625 13.14453125 -1.625 10.8125 C-1.52574219 10.00554687 -1.42648438 9.19859375 -1.32421875 8.3671875 C-0.94070761 5.56709409 -0.49929199 2.78176966 0 0 Z " fill="#5468C1" transform="translate(119,369)"/>
<path d="M0 0 C0.66 0 1.32 0 2 0 C2.33 2.97 2.66 5.94 3 9 C4.32 8.01 5.64 7.02 7 6 C7.66 6.33 8.32 6.66 9 7 C8.67 7.99 8.34 8.98 8 10 C5.69 10.33 3.38 10.66 1 11 C1 8.69 1 6.38 1 4 C0.4225 4.680625 -0.155 5.36125 -0.75 6.0625 C-1.4925 6.701875 -2.235 7.34125 -3 8 C-5.25 7.75 -5.25 7.75 -7 7 C-6.21625 6.401875 -5.4325 5.80375 -4.625 5.1875 C-1.85425677 3.08914751 -1.85425677 3.08914751 0 0 Z " fill="#3D4BA3" transform="translate(183,332)"/>
<path d="M0 0 C0 0.66 0 1.32 0 2 C-0.66 2 -1.32 2 -2 2 C-2 2.99 -2 3.98 -2 5 C-3.051875 5.268125 -4.10375 5.53625 -5.1875 5.8125 C-8.94134003 6.80337929 -8.94134003 6.80337929 -11.6875 8.6875 C-14 10 -14 10 -16.14453125 9.58203125 C-16.75683594 9.38996094 -17.36914062 9.19789063 -18 9 C-15.70870707 7.68684387 -13.4169845 6.37444807 -11.125 5.0625 C-10.47402344 4.68931641 -9.82304687 4.31613281 -9.15234375 3.93164062 C-2.2808277 0 -2.2808277 0 0 0 Z " fill="#344FC0" transform="translate(296,142)"/>
<path d="M0 0 C6.6 0 13.2 0 20 0 C20 0.66 20 1.32 20 2 C20.66 2 21.32 2 22 2 C22 2.66 22 3.32 22 4 C22.66 4 23.32 4 24 4 C24.33 5.65 24.66 7.3 25 9 C23.85373678 8.02133662 22.70800212 7.04205413 21.5625 6.0625 C20.92441406 5.51722656 20.28632813 4.97195313 19.62890625 4.41015625 C18.73008851 3.63204305 17.84063472 2.84063472 17 2 C14.14122091 1.76298761 11.30116703 1.57780818 8.4375 1.4375 C7.63119141 1.39431641 6.82488281 1.35113281 5.99414062 1.30664062 C3.99631195 1.20024738 1.9981793 1.09959112 0 1 C0 0.67 0 0.34 0 0 Z " fill="#5062C6" transform="translate(160,268)"/>
<path d="M0 0 C0.33 0 0.66 0 1 0 C0.58169634 7.22124213 0.04538889 14.04567778 -2 21 C-4.54000554 17.21842459 -3.93099159 14.31333113 -3.25 9.9375 C-3.06953125 8.70902344 -2.8890625 7.48054687 -2.703125 6.21484375 C-2 3 -2 3 0 0 Z " fill="#1C3BBC" transform="translate(373,140)"/>
<path d="M0 0 C1 2 1 2 0.375 4.4375 C-1.29368348 7.54731922 -2.81017219 8.56457749 -6 10 C-6.66 9.67 -7.32 9.34 -8 9 C-5.66153846 2.35384615 -5.66153846 2.35384615 -2.3125 0.5625 C-1.549375 0.376875 -0.78625 0.19125 0 0 Z " fill="#1F3ED7" transform="translate(215,274)"/>
<path d="M0 0 C3.3125 1.25 3.3125 1.25 4.3125 3.25 C-2.6175 3.25 -9.5475 3.25 -16.6875 3.25 C-16.6875 2.92 -16.6875 2.59 -16.6875 2.25 C-16.08421875 2.20101563 -15.4809375 2.15203125 -14.859375 2.1015625 C-14.06015625 2.02679688 -13.2609375 1.95203125 -12.4375 1.875 C-11.25414062 1.77058594 -11.25414062 1.77058594 -10.046875 1.6640625 C-7.6577039 1.36847241 -7.6577039 1.36847241 -5.62109375 0.1640625 C-3.6875 -0.75 -3.6875 -0.75 0 0 Z " fill="#0B30C9" transform="translate(174.6875,264.75)"/>
<path d="M0 0 C1.32 0.33 2.64 0.66 4 1 C3.6875 2.9375 3.6875 2.9375 3 5 C-0.13349732 6.04449911 -0.98968256 5.93423645 -4 5 C-4.33 5.99 -4.66 6.98 -5 8 C-5.99 7.67 -6.98 7.34 -8 7 C-8.33 6.34 -8.66 5.68 -9 5 C-6.03 4.01 -3.06 3.02 0 2 C0 1.34 0 0.68 0 0 Z " fill="#3553D1" transform="translate(263,233)"/>
<path d="M0 0 C1 2 1 2 1 5 C1.33 4.01 1.66 3.02 2 2 C2.99 2.33 3.98 2.66 5 3 C5 3.66 5 4.32 5 5 C4.34 5 3.68 5 3 5 C2.67 5.99 2.34 6.98 2 8 C1.34 8 0.68 8 0 8 C0 9.98 0 11.96 0 14 C1.98 13.67 3.96 13.34 6 13 C4 15 4 15 1.375 15.125 C0.59125 15.08375 -0.1925 15.0425 -1 15 C-1.02685412 12.68756208 -1.04632841 10.3750373 -1.0625 8.0625 C-1.07410156 6.77472656 -1.08570312 5.48695313 -1.09765625 4.16015625 C-1 1 -1 1 0 0 Z " fill="#0E31DA" transform="translate(121,367)"/>
<path d="M0 0 C0.66 0 1.32 0 2 0 C2 2.31 2 4.62 2 7 C2.99 7 3.98 7 5 7 C5 7.66 5 8.32 5 9 C3.35 9 1.7 9 0 9 C-0.33 7.68 -0.66 6.36 -1 5 C-2.65 5.33 -4.3 5.66 -6 6 C-6 5.34 -6 4.68 -6 4 C-5.38125 3.896875 -4.7625 3.79375 -4.125 3.6875 C-1.63473516 3.12474627 -1.63473516 3.12474627 0 0 Z " fill="#0D2BC9" transform="translate(182,336)"/>
<path d="M0 0 C0.66 1.32 1.32 2.64 2 4 C1.01 4.33 0.02 4.66 -1 5 C-2.4587688 6.29078411 -2.4587688 6.29078411 -4 8 C-5.66666667 9.66666667 -7.33333333 11.33333333 -9 13 C-9.66 12.67 -10.32 12.34 -11 12 C-10.67 11.34 -10.34 10.68 -10 10 C-9.34 10 -8.68 10 -8 10 C-7.79375 9.278125 -7.5875 8.55625 -7.375 7.8125 C-5.54751837 4.0744694 -3.29561194 2.50753083 0 0 Z " fill="#1030CA" transform="translate(240,247)"/>
<path d="M0 0 C0 0.33 0 0.66 0 1 C-7.61399923 3.19386419 -14.16296501 2.89635331 -22 2 C-14.82042868 -1.79912521 -7.81050747 -0.91805242 0 0 Z " fill="#2E49CD" transform="translate(362,125)"/>
<path d="M0 0 C3 1 3 1 5 4 C5.1953125 6.48046875 5.1953125 6.48046875 5.125 9.1875 C5.10695312 10.08855469 5.08890625 10.98960937 5.0703125 11.91796875 C5.03550781 12.94857422 5.03550781 12.94857422 5 14 C4.34 14 3.68 14 3 14 C3 11.69 3 9.38 3 7 C2.01 6.67 1.02 6.34 0 6 C0 4.02 0 2.04 0 0 Z " fill="#0D2DD1" transform="translate(169,353)"/>
<path d="M0 0 C0.99 0 1.98 0 3 0 C1.62815653 4.06498881 -0.22068459 6.67396561 -3.125 9.8125 C-3.84945312 10.60269531 -4.57390625 11.39289063 -5.3203125 12.20703125 C-5.87460938 12.79871094 -6.42890625 13.39039063 -7 14 C-7.66 13.34 -8.32 12.68 -9 12 C-7.48818898 8.22047244 -7.48818898 8.22047244 -5.0625 7.125 C-2.03999944 5.47636333 -1.33738259 3.07597995 0 0 Z " fill="#3855BF" transform="translate(200,348)"/>
<path d="M0 0 C2.97 0.495 2.97 0.495 6 1 C6 1.66 6 2.32 6 3 C6.66 3 7.32 3 8 3 C8 3.99 8 4.98 8 6 C8.66 6 9.32 6 10 6 C10 9.96 10 13.92 10 18 C9.67 18 9.34 18 9 18 C9 14.7 9 11.4 9 8 C8.34 8 7.68 8 7 8 C7 7.34 7 6.68 7 6 C6.34 6 5.68 6 5 6 C5 5.34 5 4.68 5 4 C4.360625 3.71125 3.72125 3.4225 3.0625 3.125 C1 2 1 2 0 0 Z " fill="#5B75CA" transform="translate(222,314)"/>
<path d="M0 0 C1.24007812 -0.01675781 2.48015625 -0.03351563 3.7578125 -0.05078125 C4.78648437 0.06910156 5.81515625 0.18898438 6.875 0.3125 C7.535 1.3025 8.195 2.2925 8.875 3.3125 C6.9375 3.875 6.9375 3.875 4.875 4.3125 C4.545 3.9825 4.215 3.6525 3.875 3.3125 C1.34903741 3.07596477 -1.15607207 2.89076308 -3.6875 2.75 C-4.39841797 2.70681641 -5.10933594 2.66363281 -5.84179688 2.61914062 C-7.60261912 2.51278223 -9.3637832 2.41211154 -11.125 2.3125 C-7.46771489 0.0060212 -4.26128693 0.01334432 0 0 Z " fill="#2B43BB" transform="translate(174.125,292.6875)"/>
<path d="M0 0 C1.1484375 1.609375 1.1484375 1.609375 2 4 C1.1015625 7.015625 1.1015625 7.015625 -0.375 10.25 C-0.85710937 11.32765625 -1.33921875 12.4053125 -1.8359375 13.515625 C-2.22007812 14.33546875 -2.60421875 15.1553125 -3 16 C-3.33 16 -3.66 16 -4 16 C-3.04402516 3.04402516 -3.04402516 3.04402516 0 0 Z " fill="#3D54C8" transform="translate(360,185)"/>
<path d="M0 0 C-2.09797355 2.09797355 -3.75609656 2.96787972 -6.4375 4.1875 C-7.21996094 4.55230469 -8.00242187 4.91710937 -8.80859375 5.29296875 C-11 6 -11 6 -14 5 C-11.57961783 1.24840764 -11.57961783 1.24840764 -9.25 0.25 C-6.15774855 -0.09358349 -3.10779654 -0.05976532 0 0 Z " fill="#2440C6" transform="translate(312,153)"/>
<path d="M0 0 C0.66 0 1.32 0 2 0 C1.52372025 1.95903745 1.04388577 3.91721097 0.5625 5.875 C0.29566406 6.96554687 0.02882812 8.05609375 -0.24609375 9.1796875 C-1 12 -1 12 -2 14 C-1.01 14.33 -0.02 14.66 1 15 C-0.98 15 -2.96 15 -5 15 C-5 14.34 -5 13.68 -5 13 C-4.34 13 -3.68 13 -3 13 C-3.0928125 11.7315625 -3.0928125 11.7315625 -3.1875 10.4375 C-2.95984372 6.26380157 -1.79792186 3.74567053 0 0 Z " fill="#374EC4" transform="translate(154,335)"/>
<path d="M0 0 C-3.3 3.3 -6.6 6.6 -10 10 C-10.33 9.01 -10.66 8.02 -11 7 C-9.71274093 5.29749607 -8.37868281 3.62935241 -7 2 C-7 1.34 -7 0.68 -7 0 C-3.98968256 -0.93423645 -3.13349732 -1.04449911 0 0 Z " fill="#3C56C8" transform="translate(251,195)"/>
<path d="M0 0 C0.33 0.66 0.66 1.32 1 2 C0.22265625 4.1640625 0.22265625 4.1640625 -0.9375 6.625 C-1.31777344 7.44226563 -1.69804687 8.25953125 -2.08984375 9.1015625 C-2.54037109 10.04128906 -2.54037109 10.04128906 -3 11 C-3.66 11 -4.32 11 -5 11 C-5.33 12.65 -5.66 14.3 -6 16 C-6.66 15.67 -7.32 15.34 -8 15 C-6.51194289 9.19657726 -3.40902445 4.82409121 0 0 Z " fill="#4257C1" transform="translate(133,339)"/>
<path d="M0 0 C2 3 2 3 2.0625 5.75 C0.55835104 10.35092622 -2.43068998 12.85006061 -6 16 C-6.33 15.01 -6.66 14.02 -7 13 C-5.37660195 11.29115995 -3.70680947 9.62553283 -2 8 C-1.34 8 -0.68 8 0 8 C0 5.36 0 2.72 0 0 Z " fill="#5166C0" transform="translate(295,304)"/>
<path d="M0 0 C2.31 0 4.62 0 7 0 C6.67 0.99 6.34 1.98 6 3 C7.32 3.66 8.64 4.32 10 5 C9.34 5.66 8.68 6.32 8 7 C6.35 5.68 4.7 4.36 3 3 C1.02 3.99 1.02 3.99 -1 5 C-1 2 -1 2 0 0 Z " fill="#2A43C1" transform="translate(206,300)"/>
<path d="M0 0 C1.32 0.66 2.64 1.32 4 2 C-2.15034169 9.48291572 -2.15034169 9.48291572 -6 12 C-6 11.01 -6 10.02 -6 9 C-5.34 9 -4.68 9 -4 9 C-2.47700477 6.06279492 -1.19899698 3.0831351 0 0 Z " fill="#445DCD" transform="translate(246,356)"/>
<path d="M0 0 C1.32 0 2.64 0 4 0 C4 2 4 2 2.35546875 3.65625 C1.28232422 4.56890625 1.28232422 4.56890625 0.1875 5.5 C-0.87404297 6.41265625 -0.87404297 6.41265625 -1.95703125 7.34375 C-4 9 -4 9 -7 11 C-7 8 -7 8 -5.125 5.8125 C-3 4 -3 4 -1 4 C-0.67 2.68 -0.34 1.36 0 0 Z " fill="#384EBD" transform="translate(258,183)"/>
<path d="M0 0 C1.33804688 0.04060547 1.33804688 0.04060547 2.703125 0.08203125 C3.37859375 0.11683594 4.0540625 0.15164063 4.75 0.1875 C4.75 0.8475 4.75 1.5075 4.75 2.1875 C0.07798795 3.39318053 -4.46496292 3.28132426 -9.25 3.1875 C-6.10408067 0.38704377 -4.182936 -0.16511589 0 0 Z " fill="#2841C3" transform="translate(134.25,378.8125)"/>
<path d="M0 0 C0.66 0 1.32 0 2 0 C1.1875 2.4375 1.1875 2.4375 0 5 C-0.99 5.33 -1.98 5.66 -3 6 C-3 6.99 -3 7.98 -3 9 C-4.65 9 -6.3 9 -8 9 C-7.04270084 7.87411986 -6.08412105 6.7493285 -5.125 5.625 C-4.59132812 4.99851563 -4.05765625 4.37203125 -3.5078125 3.7265625 C-2.38567993 2.44163349 -1.20628025 1.20628025 0 0 Z " fill="#6075CA" transform="translate(164,226)"/>
<path d="M0 0 C-0.33 0.66 -0.66 1.32 -1 2 C-1.66 2 -2.32 2 -3 2 C-3 2.66 -3 3.32 -3 4 C-3.66 4 -4.32 4 -5 4 C-5.33 4.99 -5.66 5.98 -6 7 C-6.99 6.34 -7.98 5.68 -9 5 C-5.28508772 -1.58552632 -5.28508772 -1.58552632 0 0 Z " fill="#0C34E8" transform="translate(322,251)"/>
<path d="M0 0 C0.33 1.32 0.66 2.64 1 4 C-0.24176695 4.70226141 -1.49385599 5.38629109 -2.75 6.0625 C-3.79414063 6.63677734 -3.79414063 6.63677734 -4.859375 7.22265625 C-7 8 -7 8 -11 7 C-7.37 4.69 -3.74 2.38 0 0 Z " fill="#5164CF" transform="translate(252,239)"/>
<path d="M0 0 C1.125 3.75 1.125 3.75 0 6 C-2.97 5.67 -5.94 5.34 -9 5 C-5.89448334 1.89448334 -4.10801767 1.18676066 0 0 Z " fill="#0B2FCA" transform="translate(359,137)"/>
<path d="M0 0 C6.93 0.495 6.93 0.495 14 1 C14 2.32 14 3.64 14 5 C13.67 4.01 13.34 3.02 13 2 C12.34 2.165 11.68 2.33 11 2.5 C7.26900206 3.12183299 3.78126622 3.06408926 0 3 C0 2.01 0 1.02 0 0 Z " fill="#0B2BC9" transform="translate(131,327)"/>
<path d="M0 0 C0.66 0.99 1.32 1.98 2 3 C0.02 6.63 -1.96 10.26 -4 14 C-4.33 14 -4.66 14 -5 14 C-5 12.35 -5 10.7 -5 9 C-4.34 9 -3.68 9 -3 9 C-3 7.35 -3 5.7 -3 4 C-2.01 3.67 -1.02 3.34 0 3 C0 2.01 0 1.02 0 0 Z " fill="#3A4DC3" transform="translate(205,249)"/>
<path d="M0 0 C0.66 0 1.32 0 2 0 C1 2 0 4 -1 6 C-2.32 6 -3.64 6 -5 6 C-5 6.66 -5 7.32 -5 8 C-6.32 7.67 -7.64 7.34 -9 7 C-6.3991542 4.12049214 -4.78271103 2.78262987 -1 2 C-0.67 1.34 -0.34 0.68 0 0 Z " fill="#1C3ACA" transform="translate(245,177)"/>
<path d="M0 0 C0.58203125 1.890625 0.58203125 1.890625 1 4 C-0.3125 5.75 -0.3125 5.75 -2 7 C-2.66 7 -3.32 7 -4 7 C-4 8.32 -4 9.64 -4 11 C-4.66 10.67 -5.32 10.34 -6 10 C-6 6 -6 6 -4.6875 4.296875 C-4.130625 3.78640625 -3.57375 3.2759375 -3 2.75 C-2.1646875 1.96882813 -2.1646875 1.96882813 -1.3125 1.171875 C-0.879375 0.78515625 -0.44625 0.3984375 0 0 Z " fill="#4259CA" transform="translate(143,306)"/>
<path d="M0 0 C1.32 0.66 2.64 1.32 4 2 C1.36 4.64 -1.28 7.28 -4 10 C-4.33 9.01 -4.66 8.02 -5 7 C-3.625 5.5 -3.625 5.5 -2 4 C-1.34 4 -0.68 4 0 4 C0 2.68 0 1.36 0 0 Z " fill="#3C58C9" transform="translate(255,348)"/>
<path d="M0 0 C0.99 0.33 1.98 0.66 3 1 C2.59007812 1.54269531 2.18015625 2.08539063 1.7578125 2.64453125 C0.94957031 3.71767578 0.94957031 3.71767578 0.125 4.8125 C-0.40867188 5.52019531 -0.94234375 6.22789062 -1.4921875 6.95703125 C-2.70814781 8.60456297 -3.86416141 10.29624211 -5 12 C-5.33 10.68 -5.66 9.36 -6 8 C-5.34 8 -4.68 8 -4 8 C-3.67 6.35 -3.34 4.7 -3 3 C-2.01 2.67 -1.02 2.34 0 2 C0 1.34 0 0.68 0 0 Z " fill="#4661C6" transform="translate(161,323)"/>
<path d="M0 0 C-4.34048131 2.43490415 -8.00845374 3.71202618 -13 4 C-13.66 3.34 -14.32 2.68 -15 2 C-12.87707704 1.47076428 -10.75157949 0.95184623 -8.625 0.4375 C-7.44164062 0.14746094 -6.25828125 -0.14257812 -5.0390625 -0.44140625 C-2 -1 -2 -1 0 0 Z " fill="#354ABD" transform="translate(351,141)"/>
<path d="M0 0 C1.21386936 3.64160808 0.6674695 4.33165469 -0.9375 7.6875 C-1.31777344 8.49574219 -1.69804687 9.30398438 -2.08984375 10.13671875 C-2.39019531 10.75160156 -2.69054687 11.36648438 -3 12 C-3.33 12 -3.66 12 -4 12 C-4 9.69 -4 7.38 -4 5 C-3.34 5 -2.68 5 -2 5 C-2 4.01 -2 3.02 -2 2 C-1.34 2 -0.68 2 0 2 C0 1.34 0 0.68 0 0 Z " fill="#4056C4" transform="translate(207,336)"/>
<path d="M0 0 C0.33 1.32 0.66 2.64 1 4 C1.66 4 2.32 4 3 4 C2.67 4.99 2.34 5.98 2 7 C0.35 7.33 -1.3 7.66 -3 8 C-2.45276317 4.62537285 -1.9451 2.91765 0 0 Z " fill="#3B4DA8" transform="translate(186,310)"/>
<path d="M0 0 C5.61 0.66 11.22 1.32 17 2 C17 2.33 17 2.66 17 3 C11.06 3 5.12 3 -1 3 C-0.67 2.01 -0.34 1.02 0 0 Z " fill="#2D4196" transform="translate(127,264)"/>
<path d="M0 0 C-0.75 2.9375 -0.75 2.9375 -2 6 C-4.125 6.875 -4.125 6.875 -6 7 C-6 6.34 -6 5.68 -6 5 C-6.66 4.67 -7.32 4.34 -8 4 C-2.25 0 -2.25 0 0 0 Z " fill="#2A4AC7" transform="translate(278,152)"/>
<path d="M0 0 C0.99 0.33 1.98 0.66 3 1 C2.64950425 4.24208567 2.43778819 5.61527704 -0.0625 7.8125 C-0.701875 8.204375 -1.34125 8.59625 -2 9 C-2.66 8.67 -3.32 8.34 -4 8 C-2.68 5.36 -1.36 2.72 0 0 Z " fill="#304BD3" transform="translate(354,141)"/>
<path d="M0 0 C-1.41519715 2.0343459 -2.54982123 2.90410393 -4.98046875 3.421875 C-6.98176954 3.66273952 -8.9909944 3.83532741 -11 4 C-11.33 3.34 -11.66 2.68 -12 2 C-7.8794254 0.00214565 -4.54805635 -0.17835515 0 0 Z " fill="#2643C1" transform="translate(328,131)"/>
<path d="M0 0 C0.33 0 0.66 0 1 0 C0.67 5.28 0.34 10.56 0 16 C-2.48709896 12.26935156 -2.29991053 10.42368032 -2 6 C-1 2.5625 -1 2.5625 0 0 Z " fill="#4762C2" transform="translate(209,320)"/>
<path d="M0 0 C0.33 0.99 0.66 1.98 1 3 C0.01 3.33 -0.98 3.66 -2 4 C-2.33 4.66 -2.66 5.32 -3 6 C-3 4.68 -3 3.36 -3 2 C-2.01 1.34 -1.02 0.68 0 0 Z M-5 6 C-4.34 6.33 -3.68 6.66 -3 7 C-3 7.99 -3 8.98 -3 10 C-4.65 10.33 -6.3 10.66 -8 11 C-8 10.34 -8 9.68 -8 9 C-7.34 9 -6.68 9 -6 9 C-5.67 8.01 -5.34 7.02 -5 6 Z " fill="#0F32DC" transform="translate(147,304)"/>
<path d="M0 0 C2.31 0 4.62 0 7 0 C2.375 4.875 2.375 4.875 -1 6 C-1 3 -1 3 0 0 Z " fill="#3C58C6" transform="translate(269,173)"/>
<path d="M0 0 C2.97 0 5.94 0 9 0 C6.75 2.0625 6.75 2.0625 4 4 C1.6875 3.75 1.6875 3.75 0 3 C0 3.66 0 4.32 0 5 C-0.66 4.67 -1.32 4.34 -2 4 C-1.34 2.68 -0.68 1.36 0 0 Z " fill="#1D3CCC" transform="translate(196,305)"/>
<path d="M0 0 C0.66 0.99 1.32 1.98 2 3 C0.35 4.65 -1.3 6.3 -3 8 C-3.99 7.67 -4.98 7.34 -6 7 C-4.625 5 -4.625 5 -3 3 C-2.34 3 -1.68 3 -1 3 C-0.67 2.01 -0.34 1.02 0 0 Z " fill="#2E51C8" transform="translate(218,267)"/>
<path d="M0 0 C0.66 0 1.32 0 2 0 C0.6302836 3.99500618 -1.25722422 6.80009492 -4 10 C-4.33 8.68 -4.66 7.36 -5 6 C-4.34 6 -3.68 6 -3 6 C-3 5.01 -3 4.02 -3 3 C-2.34 3 -1.68 3 -1 3 C-0.67 2.01 -0.34 1.02 0 0 Z " fill="#4A60C7" transform="translate(218,230)"/>
<path d="M0 0 C0.66 0.33 1.32 0.66 2 1 C1.67 1.66 1.34 2.32 1 3 C0.34 3 -0.32 3 -1 3 C-1.103125 3.639375 -1.20625 4.27875 -1.3125 4.9375 C-1.539375 5.618125 -1.76625 6.29875 -2 7 C-2.99 7.33 -3.98 7.66 -5 8 C-5.33 8.66 -5.66 9.32 -6 10 C-6.99 9.67 -7.98 9.34 -9 9 C-8.34 9 -7.68 9 -7 9 C-6.731875 8.401875 -6.46375 7.80375 -6.1875 7.1875 C-5.00082594 5.00152146 -3.90400887 3.58667406 -2 2 C-1.34 2 -0.68 2 0 2 C0 1.34 0 0.68 0 0 Z " fill="#7C8BD1" transform="translate(285,211)"/>
<path d="M0 0 C-1.45537568 0.83848804 -2.91440373 1.67063934 -4.375 2.5 C-5.59316406 3.19609375 -5.59316406 3.19609375 -6.8359375 3.90625 C-9 5 -9 5 -11 5 C-11.33 3.68 -11.66 2.36 -12 1 C-11.05125 0.855625 -10.1025 0.71125 -9.125 0.5625 C-2.25 -0.675 -2.25 -0.675 0 0 Z " fill="#3F57C8" transform="translate(299,160)"/>
<path d="M0 0 C1.65 0 3.3 0 5 0 C4.75 2.875 4.75 2.875 4 6 C1.9375 7.375 1.9375 7.375 0 8 C0 7.34 0 6.68 0 6 C0.66 5.67 1.32 5.34 2 5 C1.67 4.34 1.34 3.68 1 3 C1.33 2.34 1.66 1.68 2 1 C1.34 0.67 0.68 0.34 0 0 Z " fill="#2346DA" transform="translate(139,329)"/>
<path d="M0 0 C1.32 0.33 2.64 0.66 4 1 C3.34 1 2.68 1 2 1 C2.33 1.99 2.66 2.98 3 4 C0.69631264 5.06652192 -1.64018187 6.06421005 -4 7 C-4.66 6.67 -5.32 6.34 -6 6 C-4.35 5.34 -2.7 4.68 -1 4 C-1.33 3.34 -1.66 2.68 -2 2 C-1.34 2 -0.68 2 0 2 C0 1.34 0 0.68 0 0 Z " fill="#0E30D2" transform="translate(253,239)"/>
<path d="M0 0 C0.66 0.33 1.32 0.66 2 1 C-0.31 4.3 -2.62 7.6 -5 11 C-5.33 10.01 -5.66 9.02 -6 8 C-4.1875 4.8125 -4.1875 4.8125 -2 2 C-1.34 2 -0.68 2 0 2 C0 1.34 0 0.68 0 0 Z " fill="#475EBA" transform="translate(337,231)"/>
<path d="M0 0 C0.66 0 1.32 0 2 0 C0.44499019 3.81684226 -2.03595495 6.19195732 -5 9 C-5 7.02 -5 5.04 -5 3 C-3.68 3 -2.36 3 -1 3 C-0.67 2.01 -0.34 1.02 0 0 Z " fill="#384EC1" transform="translate(236,207)"/>
<path d="M0 0 C0.33 1.32 0.66 2.64 1 4 C0.195625 4.45375 -0.60875 4.9075 -1.4375 5.375 C-4.08856572 6.74725665 -4.08856572 6.74725665 -5 9 C-5.66 9 -6.32 9 -7 9 C-5.44499019 5.18315774 -2.96404505 2.80804268 0 0 Z " fill="#4360C5" transform="translate(235,185)"/>
<path d="M0 0 C1 2 1 2 0.0625 5.125 C-0.288125 6.07375 -0.63875 7.0225 -1 8 C-2.65 7.67 -4.3 7.34 -6 7 C-5.34 6.67 -4.68 6.34 -4 6 C-3.3162955 4.67532254 -2.65035814 3.34136367 -2 2 C-1.34 1.34 -0.68 0.68 0 0 Z " fill="#5D70C7" transform="translate(133,257)"/>
<path d="M0 0 C0.99 0 1.98 0 3 0 C2.67 2.97 2.34 5.94 2 9 C0.25165733 6.377486 -0.51529754 5.00515522 -1 2 C-0.67 1.34 -0.34 0.68 0 0 Z " fill="#2946DD" transform="translate(197,258)"/>
<path d="M0 0 C0.33 0.99 0.66 1.98 1 3 C-0.32 3.99 -1.64 4.98 -3 6 C-3 3 -3 3 -1.5 1.3125 C-0.7575 0.6628125 -0.7575 0.6628125 0 0 Z M-8 6 C-6.35 6 -4.7 6 -3 6 C-4.485 7.485 -4.485 7.485 -6 9 C-6.99 8.67 -7.98 8.34 -9 8 C-8.67 7.34 -8.34 6.68 -8 6 Z " fill="#1033D7" transform="translate(164,229)"/>
<path d="M0 0 C0.66 0.33 1.32 0.66 2 1 C2 1.66 2 2.32 2 3 C2.99 3.33 3.98 3.66 5 4 C4.34 4.66 3.68 5.32 3 6 C1.68 6 0.36 6 -1 6 C-0.67 4.02 -0.34 2.04 0 0 Z " fill="#364FAA" transform="translate(169,369)"/>
<path d="M0 0 C0.99 1.485 0.99 1.485 2 3 C3.32 2.01 4.64 1.02 6 0 C6.66 0.33 7.32 0.66 8 1 C7.67 1.99 7.34 2.98 7 4 C4.69 4.33 2.38 4.66 0 5 C0 3.35 0 1.7 0 0 Z " fill="#596FCD" transform="translate(184,338)"/>
<path d="M0 0 C2.97 0.495 2.97 0.495 6 1 C6 2.32 6 3.64 6 5 C5.01 5 4.02 5 3 5 C2.67 5.66 2.34 6.32 2 7 C1.855625 6.401875 1.71125 5.80375 1.5625 5.1875 C1.1127561 3.43849596 0.57107659 1.71322977 0 0 Z " fill="#0D2ECF" transform="translate(158,318)"/>
<path d="M0 0 C0.99 0.33 1.98 0.66 3 1 C0.64722731 3.72426311 -1.62496331 4.8141763 -5 6 C-5.33 5.01 -5.66 4.02 -6 3 C-4.02 2.67 -2.04 2.34 0 2 C0 1.34 0 0.68 0 0 Z " fill="#3B50BE" transform="translate(196,308)"/>
<path d="M0 0 C0.66 0.66 1.32 1.32 2 2 C0.35 4.64 -1.3 7.28 -3 10 C-4 6 -4 6 -2.0625 2.75 C-1.381875 1.8425 -0.70125 0.935 0 0 Z " fill="#3B55C0" transform="translate(343,221)"/>
<path d="M0 0 C2 1 2 1 3 3 C1.68 3 0.36 3 -1 3 C-1.103125 3.639375 -1.20625 4.27875 -1.3125 4.9375 C-1.539375 5.618125 -1.76625 6.29875 -2 7 C-2.99 7.33 -3.98 7.66 -5 8 C-4.67 6.68 -4.34 5.36 -4 4 C-3.34 4 -2.68 4 -2 4 C-1.34 2.68 -0.68 1.36 0 0 Z " fill="#0C32D4" transform="translate(288,210)"/>
<path d="M0 0 C0.66 0.33 1.32 0.66 2 1 C0.35 4.63 -1.3 8.26 -3 12 C-4.07349791 7.70600835 -3.79682816 6.80504787 -2 3 C-1.34 3 -0.68 3 0 3 C0 2.01 0 1.02 0 0 Z " fill="#4E5EBC" transform="translate(354,201)"/>
<path d="M0 0 C0.66 0 1.32 0 2 0 C1.01347016 3.31832766 0.31268497 4.76548627 -2.5 6.875 C-3.325 7.24625 -4.15 7.6175 -5 8 C-5.66 7.67 -6.32 7.34 -7 7 C-5.625 5.5 -5.625 5.5 -4 4 C-3.34 4 -2.68 4 -2 4 C-2 3.34 -2 2.68 -2 2 C-1.34 2 -0.68 2 0 2 C0 1.34 0 0.68 0 0 Z " fill="#6C80CF" transform="translate(304,192)"/>
<path d="M0 0 C0.66 0 1.32 0 2 0 C1.34 3.63 0.68 7.26 0 11 C-2 7 -2 7 -1.125 3.25 C-0.75375 2.1775 -0.3825 1.105 0 0 Z " fill="#485ABF" transform="translate(371,150)"/>
<path d="M0 0 C0.66 0 1.32 0 2 0 C0.86500606 3.29148243 0.00716624 3.9959869 -3.125 5.75 C-4.548125 6.36875 -4.548125 6.36875 -6 7 C-5.34 5.02 -4.68 3.04 -4 1 C-3.67 1.66 -3.34 2.32 -3 3 C-2.34 3 -1.68 3 -1 3 C-0.67 2.01 -0.34 1.02 0 0 Z " fill="#4257BF" transform="translate(164,364)"/>
<path d="M0 0 C0.99 0 1.98 0 3 0 C2.67 1.65 2.34 3.3 2 5 C1.34 5 0.68 5 0 5 C-0.33 5.99 -0.66 6.98 -1 8 C-1.93065133 5.39417629 -2.14917407 4.35801776 -1.0625 1.75 C-0.711875 1.1725 -0.36125 0.595 0 0 Z " fill="#092DCE" transform="translate(205,333)"/>
<path d="M0 0 C2.0625 0.4375 2.0625 0.4375 4 1 C4 1.99 4 2.98 4 4 C2.35 4.33 0.7 4.66 -1 5 C-1 1 -1 1 0 0 Z " fill="#0B2CDE" transform="translate(194,300)"/>
<path d="M0 0 C-0.33 0.99 -0.66 1.98 -1 3 C-2.98 3 -4.96 3 -7 3 C-6.67 2.01 -6.34 1.02 -6 0 C-3 -1 -3 -1 0 0 Z " fill="#304AC4" transform="translate(163,296)"/>
<path d="M0 0 C-1.52708963 3.43595166 -3.59927045 6.11912454 -6 9 C-6.8125 7.3125 -6.8125 7.3125 -7 5 C-2.79545455 0 -2.79545455 0 0 0 Z " fill="#3C51BA" transform="translate(226,222)"/>
<path d="M0 0 C0.66 0 1.32 0 2 0 C1.44894091 3.9492568 0.61064629 7.34920174 -1 11 C-1.33 11 -1.66 11 -2 11 C-1.85892253 9.54119891 -1.71197585 8.08296449 -1.5625 6.625 C-1.48128906 5.81289062 -1.40007812 5.00078125 -1.31640625 4.1640625 C-1 2 -1 2 0 0 Z " fill="#4C61BE" transform="translate(364,175)"/>
<path d="M0 0 C-0.50603992 2.16874252 -0.99983813 3.99967627 -2 6 C-2.99 6 -3.98 6 -5 6 C-4.625 3.5625 -4.625 3.5625 -4 1 C-2 0 -2 0 0 0 Z " fill="#0A34E6" transform="translate(282,321)"/>
<path d="M0 0 C0.33 0.66 0.66 1.32 1 2 C0.25 4.0625 0.25 4.0625 -1 6 C-1.99 6.33 -2.98 6.66 -4 7 C-3.6875 4.625 -3.6875 4.625 -3 2 C-2.01 1.34 -1.02 0.68 0 0 Z " fill="#2A44C0" transform="translate(137,314)"/>
<path d="M0 0 C0.33 1.98 0.66 3.96 1 6 C0.01 6 -0.98 6 -2 6 C-2.33 5.01 -2.66 4.02 -3 3 C-3.66 2.67 -4.32 2.34 -5 2 C-2 0 -2 0 0 0 Z " fill="#3C56CB" transform="translate(222,307)"/>
<path d="M0 0 C0.66 1.32 1.32 2.64 2 4 C-0.64 4.66 -3.28 5.32 -6 6 C-4 4 -2 2 0 0 Z " fill="#4361D0" transform="translate(240,247)"/>
<path d="M0 0 C0.66 0 1.32 0 2 0 C1.67 1.65 1.34 3.3 1 5 C-0.65 5.33 -2.3 5.66 -4 6 C-4 5.34 -4 4.68 -4 4 C-3.34 4 -2.68 4 -2 4 C-2 3.34 -2 2.68 -2 2 C-1.34 2 -0.68 2 0 2 C0 1.34 0 0.68 0 0 Z " fill="#415ECB" transform="translate(336,160)"/>
<path d="M0 0 C0.66 0.33 1.32 0.66 2 1 C0.02 3.31 -1.96 5.62 -4 8 C-4.33 7.34 -4.66 6.68 -5 6 C-5.66 5.67 -6.32 5.34 -7 5 C-4.69 3.35 -2.38 1.7 0 0 Z " fill="#445DC8" transform="translate(268,157)"/>
<path d="M0 0 C1.65 0 3.3 0 5 0 C-0.14285714 4.42857143 -0.14285714 4.42857143 -4 5 C-4 4.34 -4 3.68 -4 3 C-3.01 3 -2.02 3 -1 3 C-0.67 2.01 -0.34 1.02 0 0 Z " fill="#4357BB" transform="translate(153,371)"/>
<path d="M0 0 C0.625 1.8125 0.625 1.8125 1 4 C0.01 5.485 0.01 5.485 -1 7 C-1.66 7 -2.32 7 -3 7 C-3.33 7.99 -3.66 8.98 -4 10 C-4.1875 7.6875 -4.1875 7.6875 -4 5 C-2.5625 3.3125 -2.5625 3.3125 -1 2 C-0.67 1.34 -0.34 0.68 0 0 Z " fill="#1432CA" transform="translate(128,350)"/>
<path d="M0 0 C0.33 0 0.66 0 1 0 C1 2.64 1 5.28 1 8 C-0.98 8.99 -0.98 8.99 -3 10 C-2.01 6.7 -1.02 3.4 0 0 Z " fill="#3D52C2" transform="translate(203,319)"/>
<path d="M0 0 C0 3.90838866 -1.50567876 5.11594107 -4 8 C-4.33 7.01 -4.66 6.02 -5 5 C-4.67 4.34 -4.34 3.68 -4 3 C-3.34 3 -2.68 3 -2 3 C-2 2.34 -2 1.68 -2 1 C-1.34 0.67 -0.68 0.34 0 0 Z " fill="#4A5EC9" transform="translate(212,241)"/>
<path d="M0 0 C0.66 1.32 1.32 2.64 2 4 C1.34 4.66 0.68 5.32 0 6 C-1.32 6 -2.64 6 -4 6 C-4 5.34 -4 4.68 -4 4 C-3.34 4 -2.68 4 -2 4 C-1.34 2.68 -0.68 1.36 0 0 Z " fill="#4A68CF" transform="translate(155,235)"/>
<path d="M0 0 C2.31 0 4.62 0 7 0 C4.53721199 2.46278801 2.29323018 2.99771255 -1 4 C-1.66 3.34 -2.32 2.68 -3 2 C-2.01 2 -1.02 2 0 2 C0 1.34 0 0.68 0 0 Z " fill="#4559CB" transform="translate(305,153)"/>
<path d="M0 0 C-3.28463659 2.18975773 -6.20696275 2.99806563 -10 4 C-10.33 3.34 -10.66 2.68 -11 2 C-7.36576791 -0.32590854 -4.22911669 -0.16265833 0 0 Z " fill="#4660BF" transform="translate(323,149)"/>
<path d="M0 0 C0.99 0.33 1.98 0.66 3 1 C1.35 2.65 -0.3 4.3 -2 6 C-2.66 5.34 -3.32 4.68 -4 4 C-2.68 3.34 -1.36 2.68 0 2 C0 1.34 0 0.68 0 0 Z " fill="#0C33DB" transform="translate(315,134)"/>
<path d="M0 0 C0.99 0.33 1.98 0.66 3 1 C2.34 1 1.68 1 1 1 C0.67 2.65 0.34 4.3 0 6 C-0.99 6 -1.98 6 -3 6 C-3 5.01 -3 4.02 -3 3 C-2.01 3 -1.02 3 0 3 C0 2.01 0 1.02 0 0 Z " fill="#2844CF" transform="translate(271,332)"/>
<path d="M0 0 C-1.39332574 3.36720387 -2.9789286 4.9859524 -6 7 C-6 6.01 -6 5.02 -6 4 C-5.34 4 -4.68 4 -4 4 C-4 3.01 -4 2.02 -4 1 C-2 0 -2 0 0 0 Z " fill="#4466C6" transform="translate(278,329)"/>
<path d="M0 0 C0.66 0 1.32 0 2 0 C2 0.66 2 1.32 2 2 C2.99 2.33 3.98 2.66 5 3 C2 5 2 5 -1 5 C-0.67 3.35 -0.34 1.7 0 0 Z " fill="#4D5CA1" transform="translate(127,329)"/>
<path d="M0 0 C0.66 0 1.32 0 2 0 C0.55746343 3.36591866 -1.33264727 5.51047079 -4 8 C-3.40312566 4.65750371 -2.26396123 2.53563658 0 0 Z " fill="#485DC0" transform="translate(328,243)"/>
</svg>
